<?xml version="1.0" encoding="UTF-8" standalone="no"?>
<!DOCTYPE svg PUBLIC "-//W3C//DTD SVG 1.1//EN"
 "http://www.w3.org/Graphics/SVG/1.1/DTD/svg11.dtd">
<!-- Generated by graphviz version 2.43.0 (0)
 -->
<!-- Title: G Pages: 1 -->
<svg width="1266pt" height="576pt"
 viewBox="0.00 0.00 1265.60 575.60" xmlns="http://www.w3.org/2000/svg" xmlns:xlink="http://www.w3.org/1999/xlink">
<g id="graph0" class="graph" transform="scale(1 1) rotate(0) translate(28.8 546.8)">
<title>G</title>
<polygon fill="#f8fafc" stroke="transparent" points="-28.8,28.8 -28.8,-546.8 1236.8,-546.8 1236.8,28.8 -28.8,28.8"/>
<text text-anchor="middle" x="604" y="-496.4" font-family="Arial" font-size="22.00" fill="#0f172a">CGCYBER IOM &#45; Competitive Field, Sabre Gates, and Capture Sprint</text>
<!-- t1&#45;&gt;target -->
<g id="edge1" class="edge">
<title>t1&#45;&gt;target</title>
<path fill="none" stroke="#64748b" d="M174,-443.78C174,-427.57 174,-408 174,-408 174,-408 540.7,-408 540.7,-408"/>
<polygon fill="#64748b" stroke="#64748b" points="540.71,-410.8 548.7,-408 540.7,-405.2 540.71,-410.8"/>
<text text-anchor="middle" x="431" y="-468" font-family="Arial" font-size="10.00">transition knowledge</text>
</g>
<!-- t2&#45;&gt;target -->
<g id="edge2" class="edge">
<title>t2&#45;&gt;target</title>
<path fill="none" stroke="#64748b" d="M348.14,-390C348.14,-390 540.72,-390 540.72,-390"/>
<polygon fill="#64748b" stroke="#64748b" points="540.72,-392.8 548.72,-390 540.72,-387.2 540.72,-392.8"/>
<text text-anchor="middle" x="431" y="-386" font-family="Arial" font-size="10.00">scale / specialty pressure</text>
</g>
<!-- sabre&#45;&gt;target -->
<g id="edge3" class="edge">
<title>sabre&#45;&gt;target</title>
<path fill="none" stroke="#64748b" d="M303.63,-250C367.5,-250 431,-250 431,-250 431,-250 431,-376 431,-376 431,-376 540.94,-376 540.94,-376"/>
<polygon fill="#64748b" stroke="#64748b" points="540.94,-378.8 548.94,-376 540.94,-373.2 540.94,-378.8"/>
<text text-anchor="middle" x="431" y="-330" font-family="Arial" font-size="10.00">conditional prime</text>
</g>
<!-- sabre&#45;&gt;g1 -->
<g id="edge4" class="edge">
<title>sabre&#45;&gt;g1</title>
<path fill="none" stroke="#64748b" d="M174,-266.17C174,-280.53 174,-295 174,-295 174,-295 508.42,-295 508.42,-295"/>
<polygon fill="#64748b" stroke="#64748b" points="508.42,-297.8 516.42,-295 508.42,-292.2 508.42,-297.8"/>
</g>
<!-- sabre&#45;&gt;g2 -->
<g id="edge5" class="edge">
<title>sabre&#45;&gt;g2</title>
<path fill="none" stroke="#64748b" d="M303.65,-222C303.65,-222 505.85,-222 505.85,-222"/>
<polygon fill="#64748b" stroke="#64748b" points="505.85,-224.8 513.85,-222 505.85,-219.2 505.85,-224.8"/>
</g>
<!-- sabre&#45;&gt;g3 -->
<g id="edge6" class="edge">
<title>sabre&#45;&gt;g3</title>
<path fill="none" stroke="#64748b" d="M174,-209.82C174,-176.06 174,-124 174,-124 174,-124 532.39,-124 532.39,-124"/>
<polygon fill="#64748b" stroke="#64748b" points="532.39,-126.8 540.39,-124 532.39,-121.2 532.39,-126.8"/>
</g>
<!-- g1&#45;&gt;sprint -->
<g id="edge7" class="edge">
<title>g1&#45;&gt;sprint</title>
<path fill="none" stroke="#64748b" d="M843.66,-295C944.64,-295 1055,-295 1055,-295 1055,-295 1055,-204.19 1055,-204.19"/>
<polygon fill="#64748b" stroke="#64748b" points="1057.8,-204.19 1055,-196.19 1052.2,-204.19 1057.8,-204.19"/>
</g>
<!-- g2&#45;&gt;sprint -->
<g id="edge8" class="edge">
<title>g2&#45;&gt;sprint</title>
<path fill="none" stroke="#64748b" d="M833,-191.54C833,-181.62 833,-172 833,-172 833,-172 892.96,-172 892.96,-172"/>
<polygon fill="#64748b" stroke="#64748b" points="892.96,-174.8 900.96,-172 892.96,-169.2 892.96,-174.8"/>
</g>
<!-- g3&#45;&gt;sprint -->
<g id="edge9" class="edge">
<title>g3&#45;&gt;sprint</title>
<path fill="none" stroke="#64748b" d="M819.72,-146C819.72,-146 892.98,-146 892.98,-146"/>
<polygon fill="#64748b" stroke="#64748b" points="892.98,-148.8 900.98,-146 892.98,-143.2 892.98,-148.8"/>
</g>
<!-- risk&#45;&gt;sprint -->
<g id="edge10" class="edge">
<title>risk&#45;&gt;sprint</title>
<path fill="none" stroke="#64748b" stroke-dasharray="5,2" d="M762.3,-28C872.68,-28 1055,-28 1055,-28 1055,-28 1055,-131.67 1055,-131.67"/>
<polygon fill="#64748b" stroke="#64748b" points="1052.2,-131.67 1055,-139.67 1057.8,-131.67 1052.2,-131.67"/>
</g>
<!-- target -->
<g id="node1" class="node">
<title>target</title>
<path fill="#0f172a" stroke="#14b8a6" d="M799,-412C799,-412 561,-412 561,-412 555,-412 549,-406 549,-400 549,-400 549,-368 549,-368 549,-362 555,-356 561,-356 561,-356 799,-356 799,-356 805,-356 811,-362 811,-368 811,-368 811,-400 811,-400 811,-406 805,-412 799,-412"/>
<text text-anchor="middle" x="680" y="-394.6" font-family="Arial" font-size="13.00" fill="#f8fafc">IOM win condition</text>
<text text-anchor="middle" x="680" y="-380.6" font-family="Arial" font-size="13.00" fill="#f8fafc">No&#45;loss transition + integrated cyber ops</text>
<text text-anchor="middle" x="680" y="-366.6" font-family="Arial" font-size="13.00" fill="#f8fafc">FFP model survives volume uncertainty</text>
</g>
<!-- t1 -->
<g id="node2" class="node">
<title>t1</title>
<path fill="#fee2e2" stroke="#dc2626" d="M306.5,-486C306.5,-486 41.5,-486 41.5,-486 35.5,-486 29.5,-480 29.5,-474 29.5,-474 29.5,-456 29.5,-456 29.5,-450 35.5,-444 41.5,-444 41.5,-444 306.5,-444 306.5,-444 312.5,-444 318.5,-450 318.5,-456 318.5,-456 318.5,-474 318.5,-474 318.5,-480 312.5,-486 306.5,-486"/>
<text text-anchor="middle" x="174" y="-468.6" font-family="Arial" font-size="13.00" fill="#7f1d1d">Tier 1 pressure</text>
<text text-anchor="middle" x="174" y="-454.6" font-family="Arial" font-size="13.00" fill="#7f1d1d">NetCentrics | OneOmega | GovCIO | Synergy</text>
</g>
<!-- t2 -->
<g id="node3" class="node">
<title>t2</title>
<path fill="#fff7ed" stroke="#ea580c" d="M336,-404C336,-404 12,-404 12,-404 6,-404 0,-398 0,-392 0,-392 0,-374 0,-374 0,-368 6,-362 12,-362 12,-362 336,-362 336,-362 342,-362 348,-368 348,-374 348,-374 348,-392 348,-392 348,-398 342,-404 336,-404"/>
<text text-anchor="middle" x="174" y="-386.6" font-family="Arial" font-size="13.00" fill="#7c2d12">Tier 2 / wildcard</text>
<text text-anchor="middle" x="174" y="-372.6" font-family="Arial" font-size="13.00" fill="#7c2d12">Atlas | Booz Allen | GDIT | CACI | AveningTech | MetTel</text>
</g>
<!-- sabre -->
<g id="node4" class="node">
<title>sabre</title>
<path fill="#ecfeff" stroke="#0891b2" d="M291.5,-266C291.5,-266 56.5,-266 56.5,-266 50.5,-266 44.5,-260 44.5,-254 44.5,-254 44.5,-222 44.5,-222 44.5,-216 50.5,-210 56.5,-210 56.5,-210 291.5,-210 291.5,-210 297.5,-210 303.5,-216 303.5,-222 303.5,-222 303.5,-254 303.5,-254 303.5,-260 297.5,-266 291.5,-266"/>
<text text-anchor="middle" x="174" y="-248.6" font-family="Arial" font-size="13.00" fill="#164e63">Sabre Systems</text>
<text text-anchor="middle" x="174" y="-234.6" font-family="Arial" font-size="13.00" fill="#164e63">MAS 54151HACS + 54151S</text>
<text text-anchor="middle" x="174" y="-220.6" font-family="Arial" font-size="13.00" fill="#164e63">$199.98M NAVAIR digital&#45;services scale</text>
</g>
<!-- g1 -->
<g id="node5" class="node">
<title>g1</title>
<path fill="#eef2ff" stroke="#4f46e5" d="M831.5,-316C831.5,-316 528.5,-316 528.5,-316 522.5,-316 516.5,-310 516.5,-304 516.5,-304 516.5,-286 516.5,-286 516.5,-280 522.5,-274 528.5,-274 528.5,-274 831.5,-274 831.5,-274 837.5,-274 843.5,-280 843.5,-286 843.5,-286 843.5,-304 843.5,-304 843.5,-310 837.5,-316 831.5,-316"/>
<text text-anchor="middle" x="680" y="-298.6" font-family="Arial" font-size="13.00" fill="#312e81">Vehicle gate</text>
<text text-anchor="middle" x="680" y="-284.6" font-family="Arial" font-size="13.00" fill="#312e81">SIN / HACS subgroup / eBuy pool / CTA permission</text>
</g>
<!-- g2 -->
<g id="node6" class="node">
<title>g2</title>
<path fill="#eef2ff" stroke="#4f46e5" d="M834,-234C834,-234 526,-234 526,-234 520,-234 514,-228 514,-222 514,-222 514,-204 514,-204 514,-198 520,-192 526,-192 526,-192 834,-192 834,-192 840,-192 846,-198 846,-204 846,-204 846,-222 846,-222 846,-228 840,-234 834,-234"/>
<text text-anchor="middle" x="680" y="-216.6" font-family="Arial" font-size="13.00" fill="#312e81">Delivery gate</text>
<text text-anchor="middle" x="680" y="-202.6" font-family="Arial" font-size="13.00" fill="#312e81">24x7 SOC/CSSP + DODIN + cleared transition proof</text>
</g>
<!-- g3 -->
<g id="node7" class="node">
<title>g3</title>
<path fill="#eef2ff" stroke="#4f46e5" d="M807.5,-152C807.5,-152 552.5,-152 552.5,-152 546.5,-152 540.5,-146 540.5,-140 540.5,-140 540.5,-108 540.5,-108 540.5,-102 546.5,-96 552.5,-96 552.5,-96 807.5,-96 807.5,-96 813.5,-96 819.5,-102 819.5,-108 819.5,-108 819.5,-140 819.5,-140 819.5,-146 813.5,-152 807.5,-152"/>
<text text-anchor="middle" x="680" y="-134.6" font-family="Arial" font-size="13.00" fill="#312e81">Economic gate</text>
<text text-anchor="middle" x="680" y="-120.6" font-family="Arial" font-size="13.00" fill="#312e81">80&#45;105 avg FTE plausible at $105M</text>
<text text-anchor="middle" x="680" y="-106.6" font-family="Arial" font-size="13.00" fill="#312e81">validate volumes before 100&#45;200 FTE claim</text>
</g>
<!-- sprint -->
<g id="node8" class="node">
<title>sprint</title>
<path fill="#f0fdfa" stroke="#0f766e" d="M1196,-196C1196,-196 913,-196 913,-196 907,-196 901,-190 901,-184 901,-184 901,-152 901,-152 901,-146 907,-140 913,-140 913,-140 1196,-140 1196,-140 1202,-140 1208,-146 1208,-152 1208,-152 1208,-184 1208,-184 1208,-190 1202,-196 1196,-196"/>
<text text-anchor="middle" x="1054.5" y="-178.6" font-family="Arial" font-size="13.00" fill="#134e4a">10&#45;day sprint</text>
<text text-anchor="middle" x="1054.5" y="-164.6" font-family="Arial" font-size="13.00" fill="#134e4a">incumbent lineage | core team | operating model</text>
<text text-anchor="middle" x="1054.5" y="-150.6" font-family="Arial" font-size="13.00" fill="#134e4a">BOE | Gate 0</text>
</g>
<!-- risk -->
<g id="node9" class="node">
<title>risk</title>
<path fill="#fef3c7" stroke="#d97706" d="M750,-56C750,-56 610,-56 610,-56 604,-56 598,-50 598,-44 598,-44 598,-12 598,-12 598,-6 604,0 610,0 610,0 750,0 750,0 756,0 762,-6 762,-12 762,-12 762,-44 762,-44 762,-50 756,-56 750,-56"/>
<text text-anchor="middle" x="680" y="-38.6" font-family="Arial" font-size="13.00" fill="#78350f">Ethics firewall</text>
<text text-anchor="middle" x="680" y="-24.6" font-family="Arial" font-size="13.00" fill="#78350f">Official channels only</text>
<text text-anchor="middle" x="680" y="-10.6" font-family="Arial" font-size="13.00" fill="#78350f">No inside&#45;access theme</text>
</g>
</g>
</svg>
