<svg xmlns="http://www.w3.org/2000/svg" width="1900" height="1120" viewBox="0 0 1900 1120" role="img" aria-labelledby="title desc">
<title id="title">NAWCAD FY26-FY28 opportunity map</title>
<desc id="desc">Forty-three forecast rows grouped by likely opportunity seam from the FY26 Q3 Long Range Acquisition Forecast.</desc>
<style>
svg{background:#f8fafc;color:#0f172a;font-family:Arial,Helvetica,sans-serif}
.title{font-size:26px;font-weight:700;fill:#0f172a}
.subtitle{font-size:13px;fill:#475569}
.connector{fill:none;stroke:#64748b;stroke-width:2;marker-end:url(#arrow)}
.dashed{stroke-dasharray:7 6}
.box rect{fill:#fff;stroke:#cbd5e1;stroke-width:1.4}
.box .accent{stroke:#64748b;stroke-width:5}
.authority rect{fill:#ecfeff}.authority .accent{stroke:#0891b2}
.command rect{fill:#f0fdfa}.command .accent{stroke:#0f766e}
.peo rect{fill:#eff6ff}.peo .accent{stroke:#2563eb}
.delivery rect{fill:#f8fafc}.delivery .accent{stroke:#475569}
.opportunity rect{fill:#fff7ed}.opportunity .accent{stroke:#ea580c}
.company rect{fill:#fef2f2}.company .accent{stroke:#dc2626}
.box-title{font-size:14px;font-weight:700;fill:#0f172a}
.box-subtitle{font-size:11px;fill:#475569}
.legend{font-size:12px;fill:#475569}
</style>
<defs><marker id="arrow" viewBox="0 0 10 10" refX="9" refY="5" markerWidth="7" markerHeight="7" orient="auto-start-reverse"><path d="M 0 0 L 10 5 L 0 10 z" fill="#64748b"/></marker></defs>
<text x="28" y="38" class="title">NAWCAD FY26-FY28 opportunity map</text>
<text x="28" y="60" class="subtitle">Forty-three forecast rows grouped by likely opportunity seam from the FY26 Q3 Long Range Acquisition Forecast.</text>
<g class="box authority"><rect x="70" y="120" width="270" height="90" rx="0"/><line x1="70" y1="120" x2="70" y2="210" class="accent"/><g><text x="86" y="146" class="box-title">LRAF / SAM route</text><text x="86" y="178" class="box-subtitle">Planning source; official notices in</text><text x="86" y="192" class="box-subtitle">SAM</text></g></g>
<g class="box opportunity"><rect x="450" y="90" width="300" height="118" rx="0"/><line x1="450" y1="90" x2="450" y2="208" class="accent"/><g><text x="466" y="116" class="box-title">NAWCAD WOLF C5I / oLSI</text><text x="466" y="176" class="box-subtitle">TARCES, EXCOMM, Aegis, ICS, MSI</text></g></g>
<g class="box opportunity"><rect x="450" y="270" width="300" height="118" rx="0"/><line x1="450" y1="270" x2="450" y2="388" class="accent"/><g><text x="466" y="296" class="box-title">DAiTA software / data / cyber</text><text x="466" y="356" class="box-subtitle">Apps, NBO ERP, BES, M&amp;S, Cyber, software</text><text x="466" y="370" class="box-subtitle">engineering</text></g></g>
<g class="box opportunity"><rect x="450" y="450" width="300" height="118" rx="0"/><line x1="450" y1="450" x2="450" y2="568" class="accent"/><g><text x="466" y="476" class="box-title">PEO / PMA support</text><text x="466" y="536" class="box-subtitle">PMA-209, 231, 261, 265, 273, 274, 276,</text><text x="466" y="550" class="box-subtitle">290</text></g></g>
<g class="box opportunity"><rect x="450" y="630" width="300" height="118" rx="0"/><line x1="450" y1="630" x2="450" y2="748" class="accent"/><g><text x="466" y="656" class="box-title">Training and aircraft sustainment</text><text x="466" y="716" class="box-subtitle">T-6/T-34 CLS, ACI, SLAT, PMRF, T&amp;E</text><text x="466" y="730" class="box-subtitle">college</text></g></g>
<g class="box opportunity"><rect x="450" y="810" width="300" height="118" rx="0"/><line x1="450" y1="810" x2="450" y2="928" class="accent"/><g><text x="466" y="836" class="box-title">Rapid engineering / AIRWorks</text><text x="466" y="896" class="box-subtitle">OPD, ETMS, AIRWorks LSI, prototyping,</text><text x="466" y="910" class="box-subtitle">kitting</text></g></g>
<path d="M 340 165 C 395 165, 395 149, 450 149" class="connector"/>
<path d="M 340 165 C 395 165, 395 329, 450 329" class="connector"/>
<path d="M 340 165 C 395 165, 395 509, 450 509" class="connector"/>
<path d="M 340 165 C 395 165, 395 689, 450 689" class="connector"/>
<path d="M 340 165 C 395 165, 395 869, 450 869" class="connector"/>
<g class="box company"><rect x="900" y="90" width="320" height="118" rx="0"/><line x1="900" y1="90" x2="900" y2="208" class="accent"/><g><text x="916" y="116" class="box-title">C5I / C4I value cluster</text><text x="916" y="176" class="box-subtitle">$100M-$500M WOLF / oLSI rows</text></g></g>
<g class="box company"><rect x="900" y="270" width="320" height="118" rx="0"/><line x1="900" y1="270" x2="900" y2="388" class="accent"/><g><text x="916" y="296" class="box-title">Software / data / cyber cluster</text><text x="916" y="356" class="box-subtitle">$100M-$500M DAiTA and MSG rows</text></g></g>
<g class="box company"><rect x="900" y="450" width="320" height="118" rx="0"/><line x1="900" y1="450" x2="900" y2="568" class="accent"/><g><text x="916" y="476" class="box-title">PMA support cluster</text><text x="916" y="536" class="box-subtitle">$10M-$200M CSS / technical support rows</text></g></g>
<g class="box company"><rect x="900" y="630" width="320" height="118" rx="0"/><line x1="900" y1="630" x2="900" y2="748" class="accent"/><g><text x="916" y="656" class="box-title">Aviation services cluster</text><text x="916" y="716" class="box-subtitle">$10M-$1B CLS / CAS / T&amp;E rows</text></g></g>
<g class="box company"><rect x="900" y="810" width="320" height="118" rx="0"/><line x1="900" y1="810" x2="900" y2="928" class="accent"/><g><text x="916" y="836" class="box-title">Rapid capability cluster</text><text x="916" y="896" class="box-subtitle">$10M-$500M AIRWorks / WOLF / OPD rows</text></g></g>
<path d="M 750 149 C 825 149, 825 149, 900 149" class="connector"/>
<path d="M 750 329 C 825 329, 825 329, 900 329" class="connector"/>
<path d="M 750 509 C 825 509, 825 509, 900 509" class="connector"/>
<path d="M 750 689 C 825 689, 825 689, 900 689" class="connector"/>
<path d="M 750 869 C 825 869, 825 869, 900 869" class="connector"/>
<g class="box command"><rect x="1400" y="120" width="360" height="110" rx="0"/><line x1="1400" y1="120" x2="1400" y2="230" class="accent"/><g><text x="1416" y="146" class="box-title">Capture lane</text><text x="1416" y="198" class="box-subtitle">Cyber, software, BI, C5I and PM support fit</text></g></g>
<g class="box command"><rect x="1400" y="300" width="360" height="110" rx="0"/><line x1="1400" y1="300" x2="1400" y2="410" class="accent"/><g><text x="1416" y="326" class="box-title">Partner lane</text><text x="1416" y="378" class="box-subtitle">Incumbent access and NAWCAD transition knowledge</text></g></g>
<g class="box command"><rect x="1400" y="480" width="360" height="110" rx="0"/><line x1="1400" y1="480" x2="1400" y2="590" class="accent"/><g><text x="1416" y="506" class="box-title">Vehicle lane</text><text x="1416" y="558" class="box-subtitle">SeaPort vs SA IDIQ vs C-Type path</text></g></g>
<g class="box command"><rect x="1400" y="660" width="360" height="110" rx="0"/><line x1="1400" y1="660" x2="1400" y2="770" class="accent"/><g><text x="1416" y="686" class="box-title">Timing lane</text><text x="1416" y="738" class="box-subtitle">FY26 Q4 through FY28 Q3 release wave</text></g></g>
<g class="box command"><rect x="1400" y="840" width="360" height="110" rx="0"/><line x1="1400" y1="840" x2="1400" y2="950" class="accent"/><g><text x="1416" y="866" class="box-title">Proof lane</text><text x="1416" y="918" class="box-subtitle">Aircraft readiness, cyber, software and mission</text><text x="1416" y="932" class="box-subtitle">outcomes</text></g></g>
<path d="M 1220 175 C 1310 175, 1310 175, 1400 175" class="connector dashed"/>
<path d="M 1220 355 C 1310 355, 1310 355, 1400 355" class="connector dashed"/>
<path d="M 1220 535 C 1310 535, 1310 535, 1400 535" class="connector dashed"/>
<path d="M 1220 715 C 1310 715, 1310 715, 1400 715" class="connector dashed"/>
<path d="M 1220 895 C 1310 895, 1310 895, 1400 895" class="connector dashed"/>
<text x="70" y="1065" class="legend">Values and timing are planning signals from LRAF, not guaranteed solicitations. Forty-three rows are grouped for capture triage, not ranked as opportunities.</text>
</svg>