<?xml version="1.0" encoding="UTF-8" standalone="no"?>
<!DOCTYPE svg PUBLIC "-//W3C//DTD SVG 1.1//EN"
 "http://www.w3.org/Graphics/SVG/1.1/DTD/svg11.dtd">
<!-- Generated by graphviz version 2.43.0 (0)
 -->
<!-- Title: CAFAutonomyCell Pages: 1 -->
<svg width="515pt" height="480pt"
 viewBox="0.00 0.00 514.92 479.92" xmlns="http://www.w3.org/2000/svg" xmlns:xlink="http://www.w3.org/1999/xlink">
<g id="graph0" class="graph" transform="scale(1 1) rotate(0) translate(12.96 466.96)">
<title>CAFAutonomyCell</title>
<polygon fill="white" stroke="transparent" points="-12.96,12.96 -12.96,-466.96 501.96,-466.96 501.96,12.96 -12.96,12.96"/>
<text text-anchor="middle" x="244.5" y="-438.8" font-family="Times,serif" font-size="14.00">Autonomy Cell Deployment Pattern (Disconnected Operation)</text>
<g id="clust1" class="cluster">
<title>cluster_cell</title>
<path fill="white" stroke="#9a3412" stroke-dasharray="5,2" d="M20,-170C20,-170 287,-170 287,-170 293,-170 299,-176 299,-182 299,-182 299,-411 299,-411 299,-417 293,-423 287,-423 287,-423 20,-423 20,-423 14,-423 8,-417 8,-411 8,-411 8,-182 8,-182 8,-176 14,-170 20,-170"/>
<text text-anchor="middle" x="153.5" y="-407.8" font-family="Times,serif" font-size="14.00">Disconnected Enclave / Autonomy Cell</text>
</g>
<!-- Cached -->
<g id="node1" class="node">
<title>Cached</title>
<path fill="#fff7ed" stroke="#9a3412" d="M167.5,-392C167.5,-392 86.5,-392 86.5,-392 80.5,-392 74.5,-386 74.5,-380 74.5,-380 74.5,-368 74.5,-368 74.5,-362 80.5,-356 86.5,-356 86.5,-356 167.5,-356 167.5,-356 173.5,-356 179.5,-362 179.5,-368 179.5,-368 179.5,-380 179.5,-380 179.5,-386 173.5,-392 167.5,-392"/>
<text text-anchor="middle" x="127" y="-377" font-family="Arial" font-size="10.00">Cached manifests +</text>
<text text-anchor="middle" x="127" y="-366" font-family="Arial" font-size="10.00">policy bundles</text>
</g>
<!-- LocalEP -->
<g id="node2" class="node">
<title>LocalEP</title>
<path fill="#eef6ff" stroke="#1d4ed8" d="M178,-303C178,-303 76,-303 76,-303 70,-303 64,-297 64,-291 64,-291 64,-279 64,-279 64,-273 70,-267 76,-267 76,-267 178,-267 178,-267 184,-267 190,-273 190,-279 190,-279 190,-291 190,-291 190,-297 184,-303 178,-303"/>
<text text-anchor="middle" x="127" y="-288" font-family="Arial" font-size="10.00">Local enforcement points</text>
<text text-anchor="middle" x="127" y="-277" font-family="Arial" font-size="10.00">(bounded scope)</text>
</g>
<!-- Cached&#45;&gt;LocalEP -->
<g id="edge1" class="edge">
<title>Cached&#45;&gt;LocalEP</title>
<path fill="none" stroke="#9a3412" stroke-width="1.25" stroke-dasharray="5,2" d="M127,-355.81C127,-342.94 127,-325.15 127,-310.75"/>
<polygon fill="#9a3412" stroke="#9a3412" stroke-width="1.25" points="129.59,-310.55 127,-303.15 124.41,-310.55 129.59,-310.55"/>
<text text-anchor="middle" x="184.5" y="-327.44" font-family="Times,serif" font-size="8.20" fill="#9a3412">authority/control constraint</text>
</g>
<!-- Denied -->
<g id="node6" class="node">
<title>Denied</title>
<polygon fill="#fef2f2" stroke="#991b1b" points="483,-392 307,-392 307,-356 489,-356 489,-386 483,-392"/>
<polyline fill="none" stroke="#991b1b" points="483,-392 483,-386 "/>
<polyline fill="none" stroke="#991b1b" points="489,-386 483,-386 "/>
<text text-anchor="middle" x="398" y="-371.8" font-family="Arial" font-size="9.00">No scope expansion while disconnected</text>
</g>
<!-- Cached&#45;&gt;Denied -->
<g id="edge5" class="edge">
<title>Cached&#45;&gt;Denied</title>
<path fill="none" stroke="#991b1b" stroke-width="1.15" stroke-dasharray="1,5" d="M179.67,-374C219.54,-374 259.42,-374 299.3,-374"/>
<polygon fill="#991b1b" stroke="#991b1b" stroke-width="1.15" points="299.34,-376.59 306.74,-374 299.34,-371.41 299.34,-376.59"/>
</g>
<!-- Buffer -->
<g id="node3" class="node">
<title>Buffer</title>
<path fill="#eef6ff" stroke="#1d4ed8" d="M169.5,-214C169.5,-214 84.5,-214 84.5,-214 78.5,-214 72.5,-208 72.5,-202 72.5,-202 72.5,-190 72.5,-190 72.5,-184 78.5,-178 84.5,-178 84.5,-178 169.5,-178 169.5,-178 175.5,-178 181.5,-184 181.5,-190 181.5,-190 181.5,-202 181.5,-202 181.5,-208 175.5,-214 169.5,-214"/>
<text text-anchor="middle" x="127" y="-193.5" font-family="Arial" font-size="10.00">Local evidence buffer</text>
</g>
<!-- LocalEP&#45;&gt;Buffer -->
<g id="edge2" class="edge">
<title>LocalEP&#45;&gt;Buffer</title>
<path fill="none" stroke="#204060" stroke-width="1.15" d="M127,-266.81C127,-253.94 127,-236.15 127,-221.75"/>
<polygon fill="#204060" stroke="#204060" stroke-width="1.15" points="129.59,-221.55 127,-214.15 124.41,-221.55 129.59,-221.55"/>
<text text-anchor="middle" x="146.5" y="-238.44" font-family="Times,serif" font-size="8.20" fill="#204060">data flow</text>
</g>
<!-- Reconcile -->
<g id="node4" class="node">
<title>Reconcile</title>
<path fill="#ecfdf5" stroke="#166534" d="M171.5,-125C171.5,-125 82.5,-125 82.5,-125 76.5,-125 70.5,-119 70.5,-113 70.5,-113 70.5,-101 70.5,-101 70.5,-95 76.5,-89 82.5,-89 82.5,-89 171.5,-89 171.5,-89 177.5,-89 183.5,-95 183.5,-101 183.5,-101 183.5,-113 183.5,-113 183.5,-119 177.5,-125 171.5,-125"/>
<text text-anchor="middle" x="127" y="-104.5" font-family="Arial" font-size="10.00">Reconciliation service</text>
</g>
<!-- Buffer&#45;&gt;Reconcile -->
<g id="edge3" class="edge">
<title>Buffer&#45;&gt;Reconcile</title>
<path fill="none" stroke="#166534" stroke-width="1.9" d="M127,-177.81C127,-164.94 127,-147.15 127,-132.75"/>
<polygon fill="#166534" stroke="#166534" stroke-width="1.9" points="129.59,-132.55 127,-125.15 124.41,-132.55 129.59,-132.55"/>
<text text-anchor="middle" x="169.5" y="-149.2" font-family="Times,serif" font-size="8.50" fill="#166534">verification/closure</text>
</g>
<!-- Ledger -->
<g id="node5" class="node">
<title>Ledger</title>
<path fill="#ecfdf5" stroke="#166534" d="M175,-36C175,-36 79,-36 79,-36 73,-36 67,-30 67,-24 67,-24 67,-12 67,-12 67,-6 73,0 79,0 79,0 175,0 175,0 181,0 187,-6 187,-12 187,-12 187,-24 187,-24 187,-30 181,-36 175,-36"/>
<text text-anchor="middle" x="127" y="-15.5" font-family="Arial" font-size="10.00">Proof ledger / anchoring</text>
</g>
<!-- Reconcile&#45;&gt;Ledger -->
<g id="edge4" class="edge">
<title>Reconcile&#45;&gt;Ledger</title>
<path fill="none" stroke="#166534" stroke-width="1.9" d="M127,-88.81C127,-75.94 127,-58.15 127,-43.75"/>
<polygon fill="#166534" stroke="#166534" stroke-width="1.9" points="129.59,-43.55 127,-36.15 124.41,-43.55 129.59,-43.55"/>
<text text-anchor="middle" x="177" y="-60.2" font-family="Times,serif" font-size="8.50" fill="#166534">anchor after reconnect</text>
</g>
</g>
</svg>
