<svg xmlns="http://www.w3.org/2000/svg" width="1800" height="980" viewBox="0 0 1800 980" role="img" aria-labelledby="title desc">
<title id="title">NAE incumbent and teaming ecosystem</title>
<desc id="desc">Twenty-five publicly named current incumbents from the NAWCAD FY26 Q3 LRAF grouped by capability seam.</desc>
<style>
svg{background:#f8fafc;color:#0f172a;font-family:Arial,Helvetica,sans-serif}
.title{font-size:26px;font-weight:700;fill:#0f172a}
.subtitle{font-size:13px;fill:#475569}
.connector{fill:none;stroke:#475569;stroke-width:1.7;stroke-linecap:round;stroke-linejoin:round;marker-end:url(#arrow);opacity:.74}
.dashed{stroke-dasharray:7 7;opacity:.52}
.box rect{fill:#fff;stroke:#cbd5e1;stroke-width:1.4}
.box .accent{stroke:#64748b;stroke-width:5}
.authority rect{fill:#ecfeff}.authority .accent{stroke:#0891b2}
.command rect{fill:#f0fdfa}.command .accent{stroke:#0f766e}
.peo rect{fill:#eff6ff}.peo .accent{stroke:#2563eb}
.delivery rect{fill:#f8fafc}.delivery .accent{stroke:#475569}
.opportunity rect{fill:#fff7ed}.opportunity .accent{stroke:#ea580c}
.company rect{fill:#fef2f2}.company .accent{stroke:#dc2626}
.box-title{font-size:14px;font-weight:700;fill:#0f172a}
.box-subtitle{font-size:11px;fill:#475569}
.legend{font-size:12px;fill:#475569}
</style>
<defs><marker id="arrow" viewBox="0 0 10 10" refX="9" refY="5" markerWidth="6" markerHeight="6" orient="auto-start-reverse"><path d="M 0 0 L 10 5 L 0 10 z" fill="#475569"/></marker></defs>
<text x="28" y="38" class="title">NAE incumbent and teaming ecosystem</text>
<text x="28" y="60" class="subtitle">Twenty-five publicly named current incumbents from the NAWCAD FY26 Q3 LRAF grouped by capability seam.</text>
<g class="box command"><rect x="70" y="120" width="280" height="112" rx="0"/><line x1="70" y1="120" x2="70" y2="232" class="accent"/><g><text x="86" y="146" class="box-title">Sabre-relevant lenses</text><text x="86" y="200" class="box-subtitle">Digital services, cyber, software,</text><text x="86" y="214" class="box-subtitle">mission systems, PM support</text></g></g>
<g class="box company"><rect x="500" y="80" width="280" height="104" rx="0"/><line x1="500" y1="80" x2="500" y2="184" class="accent"/><g><text x="516" y="106" class="box-title">C5I / C4I integrators</text><text x="516" y="152" class="box-subtitle">Smartronix, BAE, Render, FSG</text></g></g>
<g class="box company"><rect x="500" y="240" width="280" height="104" rx="0"/><line x1="500" y1="240" x2="500" y2="344" class="accent"/><g><text x="516" y="266" class="box-title">Software / enterprise systems</text><text x="516" y="312" class="box-subtitle">Spalding, Zenetex, PSI Pax, Perrygo,</text><text x="516" y="326" class="box-subtitle">DESI</text></g></g>
<g class="box company"><rect x="500" y="400" width="280" height="104" rx="0"/><line x1="500" y1="400" x2="500" y2="504" class="accent"/><g><text x="516" y="426" class="box-title">PMA / CSS support</text><text x="516" y="472" class="box-subtitle">Precise, StraCon, Tekla, ASEC</text></g></g>
<g class="box company"><rect x="500" y="560" width="280" height="104" rx="0"/><line x1="500" y1="560" x2="500" y2="664" class="accent"/><g><text x="516" y="586" class="box-title">Sustainment / training</text><text x="516" y="632" class="box-subtitle">Amentum, Avian, Sierra, Construction</text><text x="516" y="646" class="box-subtitle">Helicopters</text></g></g>
<g class="box company"><rect x="500" y="720" width="280" height="104" rx="0"/><line x1="500" y1="720" x2="500" y2="824" class="accent"/><g><text x="516" y="746" class="box-title">Cyber / M&amp;S / rapid engineering</text><text x="516" y="792" class="box-subtitle">RMC/MIL, AEA, SciTech, Altus, Amelex,</text><text x="516" y="806" class="box-subtitle">CRL, DCS</text></g></g>
<path d="M 350 176 H 425 V 132 H 500" class="connector dashed"/>
<path d="M 350 176 H 425 V 292 H 500" class="connector dashed"/>
<path d="M 350 176 H 425 V 452 H 500" class="connector dashed"/>
<path d="M 350 176 H 425 V 612 H 500" class="connector dashed"/>
<path d="M 350 176 H 425 V 772 H 500" class="connector dashed"/>
<g class="box opportunity"><rect x="1000" y="80" width="320" height="104" rx="0"/><line x1="1000" y1="80" x2="1000" y2="184" class="accent"/><g><text x="1016" y="106" class="box-title">Transition access</text><text x="1016" y="152" class="box-subtitle">Incumbent staff, runbooks, customer memory</text></g></g>
<g class="box opportunity"><rect x="1000" y="240" width="320" height="104" rx="0"/><line x1="1000" y1="240" x2="1000" y2="344" class="accent"/><g><text x="1016" y="266" class="box-title">Technical differentiation</text><text x="1016" y="312" class="box-subtitle">Cyber, software factory, C5I integration,</text><text x="1016" y="326" class="box-subtitle">T&amp;E data</text></g></g>
<g class="box opportunity"><rect x="1000" y="400" width="320" height="104" rx="0"/><line x1="1000" y1="400" x2="1000" y2="504" class="accent"/><g><text x="1016" y="426" class="box-title">Vehicle and procurement</text><text x="1016" y="472" class="box-subtitle">SeaPort, SA IDIQ, C-Type, set-aside</text><text x="1016" y="486" class="box-subtitle">posture</text></g></g>
<g class="box opportunity"><rect x="1000" y="560" width="320" height="104" rx="0"/><line x1="1000" y1="560" x2="1000" y2="664" class="accent"/><g><text x="1016" y="586" class="box-title">Economic model</text><text x="1016" y="632" class="box-subtitle">FFP/task order sizing by value band and</text><text x="1016" y="646" class="box-subtitle">labor mix</text></g></g>
<g class="box opportunity"><rect x="1000" y="720" width="320" height="104" rx="0"/><line x1="1000" y1="720" x2="1000" y2="824" class="accent"/><g><text x="1016" y="746" class="box-title">NAE mission claim</text><text x="1016" y="792" class="box-subtitle">Tie work to readiness, availability,</text><text x="1016" y="806" class="box-subtitle">aircrew and mission outcomes</text></g></g>
<path d="M 780 132 H 890 V 132 H 1000" class="connector"/>
<path d="M 780 292 H 890 V 292 H 1000" class="connector"/>
<path d="M 780 452 H 890 V 452 H 1000" class="connector"/>
<path d="M 780 612 H 890 V 612 H 1000" class="connector"/>
<path d="M 780 772 H 890 V 772 H 1000" class="connector"/>
<g class="box authority"><rect x="1450" y="320" width="280" height="150" rx="0"/><line x1="1450" y1="320" x2="1450" y2="470" class="accent"/><g><text x="1466" y="346" class="box-title">Expanded evidence pass</text><text x="1466" y="438" class="box-subtitle">Leadership, OSBP routes, 44 LRAF</text><text x="1466" y="452" class="box-subtitle">rows, 25 incumbents, 15 sources.</text></g></g>
<path d="M 1320 132 H 1385 V 360 H 1450" class="connector dashed"/>
<path d="M 1320 292 H 1385 V 380 H 1450" class="connector dashed"/>
<path d="M 1320 452 H 1385 V 400 H 1450" class="connector dashed"/>
<path d="M 1320 612 H 1385 V 420 H 1450" class="connector dashed"/>
<path d="M 1320 772 H 1385 V 440 H 1450" class="connector dashed"/>
<text x="70" y="930" class="legend">This is an incumbent/contact ecosystem from public LRAF rows, not a bidder list or prediction of who will pursue future work.</text>
</svg>