<?xml version="1.0" encoding="UTF-8" standalone="no"?>
<!DOCTYPE svg PUBLIC "-//W3C//DTD SVG 1.1//EN"
 "http://www.w3.org/Graphics/SVG/1.1/DTD/svg11.dtd">
<!-- Generated by graphviz version 2.43.0 (0)
 -->
<!-- Title: G Pages: 1 -->
<svg width="1757pt" height="504pt"
 viewBox="0.00 0.00 1756.60 503.60" xmlns="http://www.w3.org/2000/svg" xmlns:xlink="http://www.w3.org/1999/xlink">
<g id="graph0" class="graph" transform="scale(1 1) rotate(0) translate(28.8 474.8)">
<title>G</title>
<polygon fill="#f8fafc" stroke="transparent" points="-28.8,28.8 -28.8,-474.8 1727.8,-474.8 1727.8,28.8 -28.8,28.8"/>
<text text-anchor="middle" x="849.5" y="-424.4" font-family="Arial" font-size="22.00" fill="#0f172a">CGCYBER IOM &#45; Authority, Customer, and Delivery Structure</text>
<!-- dhs&#45;&gt;uscg -->
<g id="edge1" class="edge">
<title>dhs&#45;&gt;uscg</title>
<path fill="none" stroke="#64748b" d="M96.02,-273C96.02,-273 142.88,-273 142.88,-273"/>
<polygon fill="#64748b" stroke="#64748b" points="142.88,-275.8 150.88,-273 142.88,-270.2 142.88,-275.8"/>
</g>
<!-- uscg&#45;&gt;cgcyber -->
<g id="edge2" class="edge">
<title>uscg&#45;&gt;cgcyber</title>
<path fill="none" stroke="#64748b" d="M338,-251.99C338,-215.43 338,-144 338,-144 338,-144 400.8,-144 400.8,-144"/>
<polygon fill="#64748b" stroke="#64748b" points="400.8,-146.8 408.8,-144 400.8,-141.2 400.8,-146.8"/>
</g>
<!-- uscg&#45;&gt;dcs -->
<g id="edge3" class="edge">
<title>uscg&#45;&gt;dcs</title>
<path fill="none" stroke="#64748b" d="M346.25,-264C346.25,-264 392.66,-264 392.66,-264"/>
<polygon fill="#64748b" stroke="#64748b" points="392.66,-266.8 400.66,-264 392.66,-261.2 392.66,-266.8"/>
</g>
<!-- uscg&#45;&gt;tech -->
<g id="edge6" class="edge">
<title>uscg&#45;&gt;tech</title>
<path fill="none" stroke="#64748b" d="M346.04,-285C467.45,-285 659,-285 659,-285 659,-285 659,-349.87 659,-349.87"/>
<polygon fill="#64748b" stroke="#64748b" points="656.2,-349.87 659,-357.87 661.8,-349.87 656.2,-349.87"/>
</g>
<!-- cgcyber&#45;&gt;iom -->
<g id="edge8" class="edge">
<title>cgcyber&#45;&gt;iom</title>
<path fill="none" stroke="#64748b" d="M557.29,-161C557.29,-161 1483.95,-161 1483.95,-161"/>
<polygon fill="#64748b" stroke="#64748b" points="1483.95,-163.8 1491.95,-161 1483.95,-158.2 1483.95,-163.8"/>
<text text-anchor="middle" x="1060" y="-146" font-family="Arial" font-size="10.00">mission outcomes</text>
</g>
<!-- tama&#45;&gt;cgcyber -->
<g id="edge9" class="edge">
<title>tama&#45;&gt;cgcyber</title>
<path fill="none" stroke="#64748b" d="M322.12,-27C382.82,-27 459,-27 459,-27 459,-27 459,-113.99 459,-113.99"/>
<polygon fill="#64748b" stroke="#64748b" points="456.2,-113.99 459,-121.99 461.8,-113.99 456.2,-113.99"/>
</g>
<!-- meuse&#45;&gt;cgcyber -->
<g id="edge10" class="edge">
<title>meuse&#45;&gt;cgcyber</title>
<path fill="none" stroke="#64748b" d="M330.19,-190.67C397.86,-190.67 483,-190.67 483,-190.67 483,-190.67 483,-172.05 483,-172.05"/>
<polygon fill="#64748b" stroke="#64748b" points="485.8,-172.05 483,-164.05 480.2,-172.05 485.8,-172.05"/>
</g>
<!-- montatsky&#45;&gt;cgcyber -->
<g id="edge11" class="edge">
<title>montatsky&#45;&gt;cgcyber</title>
<path fill="none" stroke="#64748b" d="M326.01,-102C402.47,-102 508,-102 508,-102 508,-102 508,-113.54 508,-113.54"/>
<polygon fill="#64748b" stroke="#64748b" points="505.2,-113.54 508,-121.54 510.8,-113.54 505.2,-113.54"/>
</g>
<!-- dcs&#45;&gt;peo -->
<g id="edge4" class="edge">
<title>dcs&#45;&gt;peo</title>
<path fill="none" stroke="#64748b" d="M565.18,-240C565.18,-240 819.22,-240 819.22,-240"/>
<polygon fill="#64748b" stroke="#64748b" points="819.22,-242.8 827.22,-240 819.22,-237.2 819.22,-242.8"/>
</g>
<!-- peo&#45;&gt;c5isc -->
<g id="edge5" class="edge">
<title>peo&#45;&gt;c5isc</title>
<path fill="none" stroke="#64748b" d="M960.72,-232C960.72,-232 1143.77,-232 1143.77,-232"/>
<polygon fill="#64748b" stroke="#64748b" points="1143.77,-234.8 1151.77,-232 1143.77,-229.2 1143.77,-234.8"/>
</g>
<!-- tech&#45;&gt;iom -->
<g id="edge13" class="edge">
<title>tech&#45;&gt;iom</title>
<path fill="none" stroke="#64748b" stroke-dasharray="5,2" d="M726,-357.86C726,-300.9 726,-177.33 726,-177.33 726,-177.33 1483.91,-177.33 1483.91,-177.33"/>
<polygon fill="#64748b" stroke="#64748b" points="1483.91,-180.13 1491.91,-177.33 1483.91,-174.53 1483.91,-180.13"/>
<text text-anchor="middle" x="1060" y="-406" font-family="Arial" font-size="10.00">architecture / data / readiness</text>
</g>
<!-- hca&#45;&gt;iom -->
<g id="edge7" class="edge">
<title>hca&#45;&gt;iom</title>
<path fill="none" stroke="#64748b" d="M1247,-82.12C1247,-114.64 1247,-158 1247,-158 1247,-158 1483.88,-158 1483.88,-158"/>
<polygon fill="#64748b" stroke="#64748b" points="1483.88,-160.8 1491.88,-158 1483.88,-155.2 1483.88,-160.8"/>
<text text-anchor="middle" x="1416.5" y="-50" font-family="Arial" font-size="10.00">buyer / RFQ route</text>
</g>
<!-- c5isc&#45;&gt;iom -->
<g id="edge12" class="edge">
<title>c5isc&#45;&gt;iom</title>
<path fill="none" stroke="#64748b" stroke-dasharray="5,2" d="M1341.4,-207.5C1341.4,-207.5 1483.72,-207.5 1483.72,-207.5"/>
<polygon fill="#64748b" stroke="#64748b" points="1483.72,-210.3 1491.72,-207.5 1483.72,-204.7 1483.72,-210.3"/>
<text text-anchor="middle" x="1416.5" y="-227" font-family="Arial" font-size="10.00">delivery dependencies</text>
</g>
<!-- vendor&#45;&gt;c5isc -->
<g id="edge14" class="edge">
<title>vendor&#45;&gt;c5isc</title>
<path fill="none" stroke="#64748b" stroke-dasharray="5,2" d="M965,-299.97C965,-284.81 965,-267 965,-267 965,-267 1143.98,-267 1143.98,-267"/>
<polygon fill="#64748b" stroke="#64748b" points="1143.98,-269.8 1151.98,-267 1143.98,-264.2 1143.98,-269.8"/>
</g>
<!-- dhs -->
<g id="node1" class="node">
<title>dhs</title>
<path fill="#ecfeff" stroke="#0891b2" d="M84,-294C84,-294 12,-294 12,-294 6,-294 0,-288 0,-282 0,-282 0,-264 0,-264 0,-258 6,-252 12,-252 12,-252 84,-252 84,-252 90,-252 96,-258 96,-264 96,-264 96,-282 96,-282 96,-288 90,-294 84,-294"/>
<text text-anchor="middle" x="48" y="-276.6" font-family="Arial" font-size="13.00" fill="#164e63">DHS</text>
<text text-anchor="middle" x="48" y="-262.6" font-family="Arial" font-size="13.00" fill="#164e63">APFS owner</text>
</g>
<!-- uscg -->
<g id="node2" class="node">
<title>uscg</title>
<path fill="#e0f2fe" stroke="#0284c7" d="M334,-294C334,-294 163,-294 163,-294 157,-294 151,-288 151,-282 151,-282 151,-264 151,-264 151,-258 157,-252 163,-252 163,-252 334,-252 334,-252 340,-252 346,-258 346,-264 346,-264 346,-282 346,-282 346,-288 340,-294 334,-294"/>
<text text-anchor="middle" x="248.5" y="-276.6" font-family="Arial" font-size="13.00" fill="#0c4a6e">U.S. Coast Guard</text>
<text text-anchor="middle" x="248.5" y="-262.6" font-family="Arial" font-size="13.00" fill="#0c4a6e">Mission + funding component</text>
</g>
<!-- cgcyber -->
<g id="node3" class="node">
<title>cgcyber</title>
<path fill="#ccfbf1" stroke="#0f766e" d="M545,-164C545,-164 421,-164 421,-164 415,-164 409,-158 409,-152 409,-152 409,-134 409,-134 409,-128 415,-122 421,-122 421,-122 545,-122 545,-122 551,-122 557,-128 557,-134 557,-134 557,-152 557,-152 557,-158 551,-164 545,-164"/>
<text text-anchor="middle" x="483" y="-146.6" font-family="Arial" font-size="13.00" fill="#134e4a">CGCYBER</text>
<text text-anchor="middle" x="483" y="-132.6" font-family="Arial" font-size="13.00" fill="#134e4a">Operational customer</text>
</g>
<!-- tama -->
<g id="node4" class="node">
<title>tama</title>
<path fill="#f0fdfa" stroke="#0f766e" d="M310,-42C310,-42 187,-42 187,-42 181,-42 175,-36 175,-30 175,-30 175,-12 175,-12 175,-6 181,0 187,0 187,0 310,0 310,0 316,0 322,-6 322,-12 322,-12 322,-30 322,-30 322,-36 316,-42 310,-42"/>
<text text-anchor="middle" x="248.5" y="-24.6" font-family="Arial" font-size="13.00" fill="#134e4a">RDML Jason P. Tama</text>
<text text-anchor="middle" x="248.5" y="-10.6" font-family="Arial" font-size="13.00" fill="#134e4a">Commander</text>
</g>
<!-- meuse -->
<g id="node5" class="node">
<title>meuse</title>
<path fill="#f0fdfa" stroke="#0f766e" d="M318,-206C318,-206 179,-206 179,-206 173,-206 167,-200 167,-194 167,-194 167,-176 167,-176 167,-170 173,-164 179,-164 179,-164 318,-164 318,-164 324,-164 330,-170 330,-176 330,-176 330,-194 330,-194 330,-200 324,-206 318,-206"/>
<text text-anchor="middle" x="248.5" y="-188.6" font-family="Arial" font-size="13.00" fill="#134e4a">CAPT Joseph E. Meuse</text>
<text text-anchor="middle" x="248.5" y="-174.6" font-family="Arial" font-size="13.00" fill="#134e4a">Deputy Commander</text>
</g>
<!-- montatsky -->
<g id="node6" class="node">
<title>montatsky</title>
<path fill="#f0fdfa" stroke="#0f766e" d="M314,-124C314,-124 183,-124 183,-124 177,-124 171,-118 171,-112 171,-112 171,-94 171,-94 171,-88 177,-82 183,-82 183,-82 314,-82 314,-82 320,-82 326,-88 326,-94 326,-94 326,-112 326,-112 326,-118 320,-124 314,-124"/>
<text text-anchor="middle" x="248.5" y="-106.6" font-family="Arial" font-size="13.00" fill="#134e4a">CAPT Boris Montatsky</text>
<text text-anchor="middle" x="248.5" y="-92.6" font-family="Arial" font-size="13.00" fill="#134e4a">Director of Operations</text>
</g>
<!-- dcs -->
<g id="node7" class="node">
<title>dcs</title>
<path fill="#eef2ff" stroke="#4f46e5" d="M553,-276C553,-276 413,-276 413,-276 407,-276 401,-270 401,-264 401,-264 401,-232 401,-232 401,-226 407,-220 413,-220 413,-220 553,-220 553,-220 559,-220 565,-226 565,-232 565,-232 565,-264 565,-264 565,-270 559,-276 553,-276"/>
<text text-anchor="middle" x="483" y="-258.6" font-family="Arial" font-size="13.00" fill="#312e81">DCS / Systems</text>
<text text-anchor="middle" x="483" y="-244.6" font-family="Arial" font-size="13.00" fill="#312e81">RDML Jon P. Hickey</text>
<text text-anchor="middle" x="483" y="-230.6" font-family="Arial" font-size="13.00" fill="#312e81">CAO / lifecycle authority</text>
</g>
<!-- peo -->
<g id="node8" class="node">
<title>peo</title>
<path fill="#eef2ff" stroke="#4f46e5" d="M948.5,-260C948.5,-260 839.5,-260 839.5,-260 833.5,-260 827.5,-254 827.5,-248 827.5,-248 827.5,-216 827.5,-216 827.5,-210 833.5,-204 839.5,-204 839.5,-204 948.5,-204 948.5,-204 954.5,-204 960.5,-210 960.5,-216 960.5,-216 960.5,-248 960.5,-248 960.5,-254 954.5,-260 948.5,-260"/>
<text text-anchor="middle" x="894" y="-242.6" font-family="Arial" font-size="13.00" fill="#312e81">PEO C5I / CIO</text>
<text text-anchor="middle" x="894" y="-228.6" font-family="Arial" font-size="13.00" fill="#312e81">Scott M. St. Pierre</text>
<text text-anchor="middle" x="894" y="-214.6" font-family="Arial" font-size="13.00" fill="#312e81">C5I/Cyber lifecycle</text>
</g>
<!-- tech -->
<g id="node9" class="node">
<title>tech</title>
<path fill="#fff7ed" stroke="#ea580c" d="M781,-414C781,-414 604,-414 604,-414 598,-414 592,-408 592,-402 592,-402 592,-370 592,-370 592,-364 598,-358 604,-358 604,-358 781,-358 781,-358 787,-358 793,-364 793,-370 793,-370 793,-402 793,-402 793,-408 787,-414 781,-414"/>
<text text-anchor="middle" x="692.5" y="-396.6" font-family="Arial" font-size="13.00" fill="#7c2d12">CG&#45;TECH / DTX</text>
<text text-anchor="middle" x="692.5" y="-382.6" font-family="Arial" font-size="13.00" fill="#7c2d12">Brian D. Campo</text>
<text text-anchor="middle" x="692.5" y="-368.6" font-family="Arial" font-size="13.00" fill="#7c2d12">Technology readiness / CDAO</text>
</g>
<!-- hca -->
<g id="node10" class="node">
<title>hca</title>
<path fill="#fef3c7" stroke="#d97706" d="M1304.5,-82C1304.5,-82 1188.5,-82 1188.5,-82 1182.5,-82 1176.5,-76 1176.5,-70 1176.5,-70 1176.5,-24 1176.5,-24 1176.5,-18 1182.5,-12 1188.5,-12 1188.5,-12 1304.5,-12 1304.5,-12 1310.5,-12 1316.5,-18 1316.5,-24 1316.5,-24 1316.5,-70 1316.5,-70 1316.5,-76 1310.5,-82 1304.5,-82"/>
<text text-anchor="middle" x="1246.5" y="-64.6" font-family="Arial" font-size="13.00" fill="#78350f">CG&#45;HCA acquisition</text>
<text text-anchor="middle" x="1246.5" y="-50.6" font-family="Arial" font-size="13.00" fill="#78350f">Shantia Allen</text>
<text text-anchor="middle" x="1246.5" y="-36.6" font-family="Arial" font-size="13.00" fill="#78350f">Jared Slizofski</text>
<text text-anchor="middle" x="1246.5" y="-22.6" font-family="Arial" font-size="13.00" fill="#78350f">Tanika Posey</text>
</g>
<!-- iom -->
<g id="node11" class="node">
<title>iom</title>
<path fill="#0f172a" stroke="#14b8a6" d="M1687,-211C1687,-211 1504,-211 1504,-211 1498,-211 1492,-205 1492,-199 1492,-199 1492,-167 1492,-167 1492,-161 1498,-155 1504,-155 1504,-155 1687,-155 1687,-155 1693,-155 1699,-161 1699,-167 1699,-167 1699,-199 1699,-199 1699,-205 1693,-211 1687,-211"/>
<text text-anchor="middle" x="1595.5" y="-193.6" font-family="Arial" font-size="13.00" fill="#f8fafc">IOM Forecast F2026073117</text>
<text text-anchor="middle" x="1595.5" y="-179.6" font-family="Arial" font-size="13.00" fill="#f8fafc">&gt; $100M | FFP | GSA Schedule</text>
<text text-anchor="middle" x="1595.5" y="-165.6" font-family="Arial" font-size="13.00" fill="#f8fafc">RFQ forecast 23 Sep 2026</text>
</g>
<!-- c5isc -->
<g id="node12" class="node">
<title>c5isc</title>
<path fill="#e0f2fe" stroke="#0369a1" d="M1329,-274C1329,-274 1164,-274 1164,-274 1158,-274 1152,-268 1152,-262 1152,-262 1152,-216 1152,-216 1152,-210 1158,-204 1164,-204 1164,-204 1329,-204 1329,-204 1335,-204 1341,-210 1341,-216 1341,-216 1341,-262 1341,-262 1341,-268 1335,-274 1329,-274"/>
<text text-anchor="middle" x="1246.5" y="-256.6" font-family="Arial" font-size="13.00" fill="#0c4a6e">C5I Service Center</text>
<text text-anchor="middle" x="1246.5" y="-242.6" font-family="Arial" font-size="13.00" fill="#0c4a6e">CAPT Benjamin Goff</text>
<text text-anchor="middle" x="1246.5" y="-228.6" font-family="Arial" font-size="13.00" fill="#0c4a6e">Kevin L. Achterberg</text>
<text text-anchor="middle" x="1246.5" y="-214.6" font-family="Arial" font-size="13.00" fill="#0c4a6e">Delivery + service interfaces</text>
</g>
<!-- vendor -->
<g id="node13" class="node">
<title>vendor</title>
<path fill="#f8fafc" stroke="#475569" d="M956,-342C956,-342 832,-342 832,-342 826,-342 820,-336 820,-330 820,-330 820,-312 820,-312 820,-306 826,-300 832,-300 832,-300 956,-300 956,-300 962,-300 968,-306 968,-312 968,-312 968,-330 968,-330 968,-336 962,-342 956,-342"/>
<text text-anchor="middle" x="894" y="-324.6" font-family="Arial" font-size="13.00" fill="#334155">C5I Vendor Relations</text>
<text text-anchor="middle" x="894" y="-310.6" font-family="Arial" font-size="13.00" fill="#334155">Official industry route</text>
</g>
</g>
</svg>
