<?xml version="1.0" encoding="UTF-8" standalone="no"?>
<!DOCTYPE svg PUBLIC "-//W3C//DTD SVG 1.1//EN"
 "http://www.w3.org/Graphics/SVG/1.1/DTD/svg11.dtd">
<!-- Generated by graphviz version 2.43.0 (0)
 -->
<!-- Title: CAFSensorSwarmLoop Pages: 1 -->
<svg width="1873pt" height="1701pt"
 viewBox="0.00 0.00 1872.56 1700.85" xmlns="http://www.w3.org/2000/svg" xmlns:xlink="http://www.w3.org/1999/xlink">
<g id="graph0" class="graph" transform="scale(1 1) rotate(0) translate(17.28 1683.57)">
<title>CAFSensorSwarmLoop</title>
<polygon fill="white" stroke="transparent" points="-17.28,17.28 -17.28,-1683.57 1855.28,-1683.57 1855.28,17.28 -17.28,17.28"/>
<text text-anchor="middle" x="919" y="-1651.89" font-family="Arial" font-size="13.00">Sensor &#45;&gt; Swarm &#45;&gt; Verified Remediation (CAF)</text>
<g id="clust1" class="cluster">
<title>cluster_plane</title>
<path fill="white" stroke="#64748b" stroke-width="1.4" stroke-dasharray="5,2" d="M222,-373C222,-373 1818,-373 1818,-373 1824,-373 1830,-379 1830,-385 1830,-385 1830,-1541 1830,-1541 1830,-1547 1824,-1553 1818,-1553 1818,-1553 222,-1553 222,-1553 216,-1553 210,-1547 210,-1541 210,-1541 210,-385 210,-385 210,-379 216,-373 222,-373"/>
<text text-anchor="middle" x="1020" y="-1538.6" font-family="Arial" font-size="13.00">CAF Assurance Control Plane (governed loop)</text>
</g>
<g id="clust2" class="cluster">
<title>cluster_laneA</title>
<path fill="white" stroke="#fed7aa" stroke-width="1.1" stroke-dasharray="5,2" d="M274,-1297C274,-1297 456,-1297 456,-1297 462,-1297 468,-1303 468,-1309 468,-1309 468,-1511 468,-1511 468,-1517 462,-1523 456,-1523 456,-1523 274,-1523 274,-1523 268,-1523 262,-1517 262,-1511 262,-1511 262,-1309 262,-1309 262,-1303 268,-1297 274,-1297"/>
<text text-anchor="middle" x="365" y="-1508.6" font-family="Arial" font-size="13.00">Lane A &#45; Authority / Governance</text>
</g>
<g id="clust4" class="cluster">
<title>cluster_laneB</title>
<path fill="white" stroke="#bfdbfe" stroke-width="1.1" stroke-dasharray="5,2" d="M230,-873C230,-873 1810,-873 1810,-873 1816,-873 1822,-879 1822,-885 1822,-885 1822,-1277 1822,-1277 1822,-1283 1816,-1289 1810,-1289 1810,-1289 230,-1289 230,-1289 224,-1289 218,-1283 218,-1277 218,-1277 218,-885 218,-885 218,-879 224,-873 230,-873"/>
<text text-anchor="middle" x="1020" y="-1274.6" font-family="Arial" font-size="13.00">Lane B &#45; Evidence + Swarm + Decisioning</text>
</g>
<g id="clust5" class="cluster">
<title>cluster_swarm</title>
<path fill="white" stroke="#60a5fa" stroke-width="1.15" stroke-dasharray="5,2" d="M954.5,-957C954.5,-957 1596,-957 1596,-957 1602,-957 1608,-963 1608,-969 1608,-969 1608,-1247 1608,-1247 1608,-1253 1602,-1259 1596,-1259 1596,-1259 954.5,-1259 954.5,-1259 948.5,-1259 942.5,-1253 942.5,-1247 942.5,-1247 942.5,-969 942.5,-969 942.5,-963 948.5,-957 954.5,-957"/>
<text text-anchor="middle" x="1275.25" y="-1244.6" font-family="Arial" font-size="13.00">Assurance Swarm (agent ensemble)</text>
</g>
<g id="clust10" class="cluster">
<title>cluster_laneC</title>
<path fill="white" stroke="#bbf7d0" stroke-width="1.1" stroke-dasharray="5,2" d="M913,-381C913,-381 1144,-381 1144,-381 1150,-381 1156,-387 1156,-393 1156,-393 1156,-853 1156,-853 1156,-859 1150,-865 1144,-865 1144,-865 913,-865 913,-865 907,-865 901,-859 901,-853 901,-853 901,-393 901,-393 901,-387 907,-381 913,-381"/>
<text text-anchor="middle" x="1028.5" y="-850.6" font-family="Arial" font-size="13.00">Lane C &#45; Enforcement + Verification</text>
</g>
<g id="clust11" class="cluster">
<title>cluster_eps</title>
<path fill="white" stroke="#15803d" stroke-width="1.1" stroke-dasharray="5,2" d="M921,-457C921,-457 1136,-457 1136,-457 1142,-457 1148,-463 1148,-469 1148,-469 1148,-823 1148,-823 1148,-829 1142,-835 1136,-835 1136,-835 921,-835 921,-835 915,-835 909,-829 909,-823 909,-823 909,-469 909,-469 909,-463 915,-457 921,-457"/>
<text text-anchor="middle" x="1028.5" y="-820.6" font-family="Arial" font-size="13.00">Enforcement Points (real boundaries)</text>
</g>
<!-- ASM -->
<g id="node1" class="node">
<title>ASM</title>
<path fill="#fff7ed" stroke="#c2410c" stroke-width="1.2" d="M440,-1417C440,-1417 289,-1417 289,-1417 283,-1417 277,-1411 277,-1405 277,-1405 277,-1393 277,-1393 277,-1387 283,-1381 289,-1381 289,-1381 440,-1381 440,-1381 446,-1381 452,-1387 452,-1393 452,-1393 452,-1405 452,-1405 452,-1411 446,-1417 440,-1417"/>
<text text-anchor="middle" x="364.5" y="-1401.84" font-family="Arial" font-size="10.20">Assurance Scope Manifest (ASM)</text>
<text text-anchor="middle" x="364.5" y="-1390.84" font-family="Arial" font-size="10.20">(signed)</text>
</g>
<!-- PDP -->
<g id="node14" class="node">
<title>PDP</title>
<path fill="#eff6ff" stroke="#1d4ed8" stroke-width="1.4" d="M446.5,-1609C446.5,-1609 282.5,-1609 282.5,-1609 276.5,-1609 270.5,-1603 270.5,-1597 270.5,-1597 270.5,-1585 270.5,-1585 270.5,-1579 276.5,-1573 282.5,-1573 282.5,-1573 446.5,-1573 446.5,-1573 452.5,-1573 458.5,-1579 458.5,-1585 458.5,-1585 458.5,-1597 458.5,-1597 458.5,-1603 452.5,-1609 446.5,-1609"/>
<text text-anchor="middle" x="364.5" y="-1593.84" font-family="Arial" font-size="10.20">Policy Decision Function (PDP)</text>
<text text-anchor="middle" x="364.5" y="-1582.84" font-family="Arial" font-size="10.20">policy + ASM + confidence &#45;&gt; verdict</text>
</g>
<!-- ASM&#45;&gt;PDP -->
<g id="edge30" class="edge">
<title>ASM&#45;&gt;PDP</title>
<path fill="none" stroke="#c2410c" stroke-width="1.5" stroke-dasharray="5,2" d="M276.73,-1401.61C241.58,-1408.05 207.01,-1423.22 197,-1457 187.26,-1489.86 183.28,-1511.54 210,-1533 230.62,-1549.57 256.46,-1561.73 281.08,-1570.5"/>
<polygon fill="#c2410c" stroke="#c2410c" stroke-width="1.5" points="280.35,-1572.92 287.98,-1572.89 282,-1568.16 280.35,-1572.92"/>
</g>
<!-- Policy -->
<g id="node2" class="node">
<title>Policy</title>
<path fill="#fff7ed" stroke="#c2410c" stroke-width="1.2" d="M409,-1493C409,-1493 320,-1493 320,-1493 314,-1493 308,-1487 308,-1481 308,-1481 308,-1469 308,-1469 308,-1463 314,-1457 320,-1457 320,-1457 409,-1457 409,-1457 415,-1457 421,-1463 421,-1469 421,-1469 421,-1481 421,-1481 421,-1487 415,-1493 409,-1493"/>
<text text-anchor="middle" x="364.5" y="-1477.84" font-family="Arial" font-size="10.20">Policy Bundles</text>
<text text-anchor="middle" x="364.5" y="-1466.84" font-family="Arial" font-size="10.20">(signed, executable)</text>
</g>
<!-- Policy&#45;&gt;PDP -->
<g id="edge31" class="edge">
<title>Policy&#45;&gt;PDP</title>
<path fill="none" stroke="#c2410c" stroke-width="1.5" stroke-dasharray="5,2" d="M364.5,-1493.12C364.5,-1517.15 364.5,-1541.17 364.5,-1565.19"/>
<polygon fill="#c2410c" stroke="#c2410c" stroke-width="1.5" points="361.98,-1565.45 364.5,-1572.65 367.02,-1565.45 361.98,-1565.45"/>
</g>
<!-- AuthorityCallout -->
<g id="node3" class="node">
<title>AuthorityCallout</title>
<polygon fill="#fff7ed" stroke="#c2410c" stroke-width="1.2" points="440.5,-1341 282.5,-1341 282.5,-1305 446.5,-1305 446.5,-1335 440.5,-1341"/>
<polyline fill="none" stroke="#c2410c" stroke-width="1.2" points="440.5,-1341 440.5,-1335 "/>
<polyline fill="none" stroke="#c2410c" stroke-width="1.2" points="446.5,-1335 440.5,-1335 "/>
<text text-anchor="middle" x="364.5" y="-1325.8" font-family="Arial" font-size="9.00">Authority constrains action eligibility,</text>
<text text-anchor="middle" x="364.5" y="-1315.8" font-family="Arial" font-size="9.00">thresholds, and tool interfaces.</text>
</g>
<!-- AuthorityCallout&#45;&gt;PDP -->
<g id="edge32" class="edge">
<title>AuthorityCallout&#45;&gt;PDP</title>
<path fill="none" stroke="#c2410c" stroke-dasharray="5,2" d="M282.26,-1324.66C245.27,-1330.51 207.54,-1345.45 197,-1381 180.33,-1437.25 180.33,-1456.75 197,-1513 200.01,-1523.16 201.73,-1526.36 210,-1533 230.62,-1549.57 256.46,-1561.73 281.08,-1570.5"/>
<polygon fill="#c2410c" stroke="#c2410c" points="280.35,-1572.92 287.98,-1572.89 282,-1568.16 280.35,-1572.92"/>
</g>
<!-- Sensors -->
<g id="node4" class="node">
<title>Sensors</title>
<path fill="#dbeafe" stroke="#1d4ed8" stroke-width="1.2" d="M491,-1109C491,-1109 238,-1109 238,-1109 232,-1109 226,-1103 226,-1097 226,-1097 226,-1085 226,-1085 226,-1079 232,-1073 238,-1073 238,-1073 491,-1073 491,-1073 497,-1073 503,-1079 503,-1085 503,-1085 503,-1097 503,-1097 503,-1103 497,-1109 491,-1109"/>
<text text-anchor="middle" x="364.5" y="-1093.84" font-family="Arial" font-size="10.20">Sensors / Producers</text>
<text text-anchor="middle" x="364.5" y="-1082.84" font-family="Arial" font-size="10.20">pipelines | runtime | identity | network | data | validators</text>
</g>
<!-- Emit -->
<g id="node5" class="node">
<title>Emit</title>
<path fill="#dbeafe" stroke="#1d4ed8" stroke-width="1.2" d="M465,-993C465,-993 264,-993 264,-993 258,-993 252,-987 252,-981 252,-981 252,-969 252,-969 252,-963 258,-957 264,-957 264,-957 465,-957 465,-957 471,-957 477,-963 477,-969 477,-969 477,-981 477,-981 477,-987 471,-993 465,-993"/>
<text text-anchor="middle" x="364.5" y="-977.84" font-family="Arial" font-size="10.20">EMIT: Seal Evidence Envelope</text>
<text text-anchor="middle" x="364.5" y="-966.84" font-family="Arial" font-size="10.20">producer identity | schema | labels | integrity</text>
</g>
<!-- Sensors&#45;&gt;Emit -->
<g id="edge1" class="edge">
<title>Sensors&#45;&gt;Emit</title>
<path fill="none" stroke="#93c5fd" stroke-width="0.9" d="M364.5,-1072.65C364.5,-1048.63 364.5,-1024.6 364.5,-1000.58"/>
<polygon fill="#93c5fd" stroke="#93c5fd" stroke-width="0.9" points="367.02,-1000.32 364.5,-993.12 361.98,-1000.33 367.02,-1000.32"/>
</g>
<!-- Merge -->
<g id="node17" class="node">
<title>Merge</title>
<path fill="#ecfdf5" stroke="#15803d" stroke-width="1.5" d="M1087,-805C1087,-805 969,-805 969,-805 963,-805 957,-799 957,-793 957,-793 957,-781 957,-781 957,-775 963,-769 969,-769 969,-769 1087,-769 1087,-769 1093,-769 1099,-775 1099,-781 1099,-781 1099,-793 1099,-793 1099,-799 1093,-805 1087,-805"/>
<text text-anchor="middle" x="1028" y="-784.34" font-family="Arial" font-size="10.20">⑤ Merge / Promotion Gate</text>
</g>
<!-- Sensors&#45;&gt;Merge -->
<!-- Enrich -->
<g id="node6" class="node">
<title>Enrich</title>
<path fill="#dbeafe" stroke="#1d4ed8" stroke-width="1.5" d="M440,-1185C440,-1185 289,-1185 289,-1185 283,-1185 277,-1179 277,-1173 277,-1173 277,-1161 277,-1161 277,-1155 283,-1149 289,-1149 289,-1149 440,-1149 440,-1149 446,-1149 452,-1155 452,-1161 452,-1161 452,-1173 452,-1173 452,-1179 446,-1185 440,-1185"/>
<text text-anchor="middle" x="364.5" y="-1169.84" font-family="Arial" font-size="10.20">① ENRICH Gateway</text>
<text text-anchor="middle" x="364.5" y="-1158.84" font-family="Arial" font-size="10.20">verify | label | anti&#45;replay | anchor</text>
</g>
<!-- Emit&#45;&gt;Enrich -->
<g id="edge2" class="edge">
<title>Emit&#45;&gt;Enrich</title>
<path fill="none" stroke="#60a5fa" stroke-width="1.2" d="M312.74,-993.09C280.6,-1006.16 239.87,-1026.22 210,-1053 190.98,-1070.06 189.74,-1084.5 197,-1109 206.31,-1140.41 236.84,-1155.72 269.33,-1162.9"/>
<polygon fill="#60a5fa" stroke="#60a5fa" stroke-width="1.2" points="269.17,-1165.44 276.73,-1164.39 270.17,-1160.5 269.17,-1165.44"/>
</g>
<!-- Ledger -->
<g id="node25" class="node">
<title>Ledger</title>
<path fill="#f1f5f9" stroke="#166534" stroke-width="1.6" d="M1311,-349C1311,-349 745,-349 745,-349 739,-349 733,-343 733,-337 733,-337 733,-325 733,-325 733,-319 739,-313 745,-313 745,-313 1311,-313 1311,-313 1317,-313 1323,-319 1323,-325 1323,-325 1323,-337 1323,-337 1323,-343 1317,-349 1311,-349"/>
<text text-anchor="middle" x="1028" y="-328.18" font-family="Arial" font-size="10.40">Proof Ledger / Anchoring (tamper&#45;evident)</text>
</g>
<!-- Emit&#45;&gt;Ledger -->
<g id="edge35" class="edge">
<title>Emit&#45;&gt;Ledger</title>
<path fill="none" stroke="#9ca3af" stroke-dasharray="1,5" d="M475.93,-956.9C486.02,-951.76 495.32,-945.24 503,-937 542.87,-894.21 510.72,-863.56 529,-808 595.98,-604.39 560.39,-498.08 733,-371 742.88,-363.72 753.47,-357.46 764.55,-352.07"/>
<polygon fill="#9ca3af" stroke="#9ca3af" points="765.67,-354.33 771.13,-349 763.54,-349.76 765.67,-354.33"/>
</g>
<!-- Drift -->
<g id="node7" class="node">
<title>Drift</title>
<path fill="#eff6ff" stroke="#1d4ed8" stroke-width="1.2" d="M1069,-1077C1069,-1077 987,-1077 987,-1077 981,-1077 975,-1071 975,-1065 975,-1065 975,-1053 975,-1053 975,-1047 981,-1041 987,-1041 987,-1041 1069,-1041 1069,-1041 1075,-1041 1081,-1047 1081,-1053 1081,-1053 1081,-1065 1081,-1065 1081,-1071 1075,-1077 1069,-1077"/>
<text text-anchor="middle" x="1028" y="-1056.34" font-family="Arial" font-size="10.20">Drift / Config Agent</text>
</g>
<!-- Enrich&#45;&gt;Drift -->
<g id="edge3" class="edge">
<title>Enrich&#45;&gt;Drift</title>
<path fill="none" stroke="#93c5fd" stroke-width="0.8" d="M452.12,-1148.99C526.43,-1133.9 636.47,-1112.42 733,-1097 813.9,-1084.08 907.88,-1072.53 967.38,-1065.65"/>
<polygon fill="#93c5fd" stroke="#93c5fd" stroke-width="0.8" points="967.96,-1068.12 974.82,-1064.79 967.38,-1063.11 967.96,-1068.12"/>
</g>
<!-- Exposure -->
<g id="node8" class="node">
<title>Exposure</title>
<path fill="#eff6ff" stroke="#1d4ed8" stroke-width="1.2" d="M1093.5,-1153C1093.5,-1153 962.5,-1153 962.5,-1153 956.5,-1153 950.5,-1147 950.5,-1141 950.5,-1141 950.5,-1129 950.5,-1129 950.5,-1123 956.5,-1117 962.5,-1117 962.5,-1117 1093.5,-1117 1093.5,-1117 1099.5,-1117 1105.5,-1123 1105.5,-1129 1105.5,-1129 1105.5,-1141 1105.5,-1141 1105.5,-1147 1099.5,-1153 1093.5,-1153"/>
<text text-anchor="middle" x="1028" y="-1132.34" font-family="Arial" font-size="10.20">Exposure / Attack&#45;Path Agent</text>
</g>
<!-- Enrich&#45;&gt;Exposure -->
<g id="edge4" class="edge">
<title>Enrich&#45;&gt;Exposure</title>
<path fill="none" stroke="#93c5fd" stroke-width="0.8" d="M452.32,-1162.8C579.99,-1156.62 816.86,-1145.17 942.94,-1139.07"/>
<polygon fill="#93c5fd" stroke="#93c5fd" stroke-width="0.8" points="943.27,-1141.57 950.34,-1138.71 943.03,-1136.54 943.27,-1141.57"/>
</g>
<!-- Compliance -->
<g id="node9" class="node">
<title>Compliance</title>
<path fill="#eff6ff" stroke="#1d4ed8" stroke-width="1.2" d="M1083,-1229C1083,-1229 973,-1229 973,-1229 967,-1229 961,-1223 961,-1217 961,-1217 961,-1205 961,-1205 961,-1199 967,-1193 973,-1193 973,-1193 1083,-1193 1083,-1193 1089,-1193 1095,-1199 1095,-1205 1095,-1205 1095,-1217 1095,-1217 1095,-1223 1089,-1229 1083,-1229"/>
<text text-anchor="middle" x="1028" y="-1208.34" font-family="Arial" font-size="10.20">Policy&#45;Compliance Agent</text>
</g>
<!-- Enrich&#45;&gt;Compliance -->
<g id="edge5" class="edge">
<title>Enrich&#45;&gt;Compliance</title>
<path fill="none" stroke="#93c5fd" stroke-width="0.8" d="M452.32,-1172.77C583.6,-1181.51 830.34,-1197.92 953.36,-1206.1"/>
<polygon fill="#93c5fd" stroke="#93c5fd" stroke-width="0.8" points="953.21,-1208.62 960.56,-1206.58 953.55,-1203.59 953.21,-1208.62"/>
</g>
<!-- Planner -->
<g id="node10" class="node">
<title>Planner</title>
<path fill="#eff6ff" stroke="#1d4ed8" stroke-width="1.2" d="M1089,-1001C1089,-1001 967,-1001 967,-1001 961,-1001 955,-995 955,-989 955,-989 955,-977 955,-977 955,-971 961,-965 967,-965 967,-965 1089,-965 1089,-965 1095,-965 1101,-971 1101,-977 1101,-977 1101,-989 1101,-989 1101,-995 1095,-1001 1089,-1001"/>
<text text-anchor="middle" x="1028" y="-980.34" font-family="Arial" font-size="10.20">Remediation Planner Agent</text>
</g>
<!-- Enrich&#45;&gt;Planner -->
<g id="edge6" class="edge">
<title>Enrich&#45;&gt;Planner</title>
<path fill="none" stroke="#93c5fd" stroke-width="0.8" d="M452.2,-1152.95C470.06,-1147.42 487.99,-1139.72 503,-1129 519.65,-1117.11 512.72,-1103.39 529,-1091 605.27,-1032.94 639.66,-1042.81 733,-1021 804.61,-1004.27 887.87,-994.38 947.47,-988.9"/>
<polygon fill="#93c5fd" stroke="#93c5fd" stroke-width="0.8" points="948.04,-991.38 954.99,-988.22 947.59,-986.36 948.04,-991.38"/>
</g>
<!-- Adjudication -->
<g id="node11" class="node">
<title>Adjudication</title>
<path fill="#dbeafe" stroke="#1d4ed8" stroke-width="1.6" d="M1588,-1153C1588,-1153 1388,-1153 1388,-1153 1382,-1153 1376,-1147 1376,-1141 1376,-1141 1376,-1129 1376,-1129 1376,-1123 1382,-1117 1388,-1117 1388,-1117 1588,-1117 1588,-1117 1594,-1117 1600,-1123 1600,-1129 1600,-1129 1600,-1141 1600,-1141 1600,-1147 1594,-1153 1588,-1153"/>
<text text-anchor="middle" x="1488" y="-1137.84" font-family="Arial" font-size="10.20">② Swarm Adjudication</text>
<text text-anchor="middle" x="1488" y="-1126.84" font-family="Arial" font-size="10.20">quorum + outlier rejection (policy&#45;governed)</text>
</g>
<!-- Enrich&#45;&gt;Adjudication -->
<g id="edge13" class="edge">
<title>Enrich&#45;&gt;Adjudication</title>
<path fill="none" stroke="#0f3a75" stroke-width="2.8" d="M452.04,-1158C470.96,-1152.28 489.38,-1143.22 503,-1129 538.64,-1091.78 494.59,-1054.37 529,-1016 593.09,-944.53 638.34,-961 733,-945 862.28,-923.15 1203.79,-890.42 1323,-945 1398.22,-979.44 1452.06,-1067.29 1474.87,-1110.39"/>
<polygon fill="#0f3a75" stroke="#0f3a75" stroke-width="2.8" points="1472.71,-1111.69 1478.27,-1116.91 1477.18,-1109.36 1472.71,-1111.69"/>
</g>
<!-- Enrich&#45;&gt;Ledger -->
<g id="edge36" class="edge">
<title>Enrich&#45;&gt;Ledger</title>
<path fill="none" stroke="#9ca3af" stroke-dasharray="1,5" d="M452.07,-1159.32C471.35,-1153.6 489.92,-1144.21 503,-1129 534.53,-1092.35 517.51,-959.96 529,-913 590.15,-662.98 531.74,-531.44 733,-371 741.84,-363.95 751.32,-357.82 761.28,-352.5"/>
<polygon fill="#9ca3af" stroke="#9ca3af" points="762.62,-354.64 767.88,-349.12 760.32,-350.16 762.62,-354.64"/>
</g>
<!-- Drift&#45;&gt;Adjudication -->
<g id="edge7" class="edge">
<title>Drift&#45;&gt;Adjudication</title>
<path fill="none" stroke="#93c5fd" stroke-width="0.8" d="M1081.02,-1064.15C1139.96,-1070.34 1238.79,-1081.84 1323,-1097 1351.25,-1102.09 1381.97,-1108.86 1409.1,-1115.29"/>
<polygon fill="#93c5fd" stroke="#93c5fd" stroke-width="0.8" points="1408.69,-1117.78 1416.28,-1117 1409.86,-1112.88 1408.69,-1117.78"/>
</g>
<!-- Exposure&#45;&gt;Adjudication -->
<g id="edge8" class="edge">
<title>Exposure&#45;&gt;Adjudication</title>
<path fill="none" stroke="#93c5fd" stroke-width="0.8" d="M1105.66,-1135C1177.34,-1135 1285.48,-1135 1368.31,-1135"/>
<polygon fill="#93c5fd" stroke="#93c5fd" stroke-width="0.8" points="1368.54,-1137.52 1375.74,-1135 1368.54,-1132.48 1368.54,-1137.52"/>
</g>
<!-- Compliance&#45;&gt;Adjudication -->
<g id="edge9" class="edge">
<title>Compliance&#45;&gt;Adjudication</title>
<path fill="none" stroke="#93c5fd" stroke-width="0.8" d="M1095.26,-1204.33C1155.04,-1197.87 1245.25,-1187 1323,-1173 1351.25,-1167.91 1381.97,-1161.14 1409.1,-1154.71"/>
<polygon fill="#93c5fd" stroke="#93c5fd" stroke-width="0.8" points="1409.86,-1157.12 1416.28,-1153 1408.69,-1152.22 1409.86,-1157.12"/>
</g>
<!-- Planner&#45;&gt;Adjudication -->
<g id="edge10" class="edge">
<title>Planner&#45;&gt;Adjudication</title>
<path fill="none" stroke="#93c5fd" stroke-width="0.8" d="M1101.12,-982.86C1162.12,-984.93 1250.85,-993.18 1323,-1021 1377.82,-1042.14 1431.93,-1085.24 1462.24,-1111.97"/>
<polygon fill="#93c5fd" stroke="#93c5fd" stroke-width="0.8" points="1460.57,-1113.85 1467.62,-1116.76 1463.92,-1110.09 1460.57,-1113.85"/>
</g>
<!-- Posture -->
<g id="node12" class="node">
<title>Posture</title>
<path fill="#dbeafe" stroke="#1d4ed8" stroke-width="1.5" d="M1802,-1244C1802,-1244 1665,-1244 1665,-1244 1659,-1244 1653,-1238 1653,-1232 1653,-1232 1653,-1220 1653,-1220 1653,-1214 1659,-1208 1665,-1208 1665,-1208 1802,-1208 1802,-1208 1808,-1208 1814,-1214 1814,-1220 1814,-1220 1814,-1232 1814,-1232 1814,-1238 1808,-1244 1802,-1244"/>
<text text-anchor="middle" x="1733.5" y="-1228.84" font-family="Arial" font-size="10.20">③ Posture Claim + Confidence</text>
<text text-anchor="middle" x="1733.5" y="-1217.84" font-family="Arial" font-size="10.20">traceable to evidence IDs</text>
</g>
<!-- Adjudication&#45;&gt;Posture -->
<g id="edge14" class="edge">
<title>Adjudication&#45;&gt;Posture</title>
<path fill="none" stroke="#0f3a75" stroke-width="2.8" d="M1537.4,-1153.09C1577.73,-1168.16 1635.19,-1189.63 1677.31,-1205.37"/>
<polygon fill="#0f3a75" stroke="#0f3a75" stroke-width="2.8" points="1676.57,-1207.79 1684.19,-1207.95 1678.33,-1203.07 1676.57,-1207.79"/>
</g>
<!-- Actions -->
<g id="node13" class="node">
<title>Actions</title>
<path fill="#dbeafe" stroke="#1d4ed8" stroke-width="1.2" d="M1794,-1161C1794,-1161 1673,-1161 1673,-1161 1667,-1161 1661,-1155 1661,-1149 1661,-1149 1661,-1137 1661,-1137 1661,-1131 1667,-1125 1673,-1125 1673,-1125 1794,-1125 1794,-1125 1800,-1125 1806,-1131 1806,-1137 1806,-1137 1806,-1149 1806,-1149 1806,-1155 1800,-1161 1794,-1161"/>
<text text-anchor="middle" x="1733.5" y="-1145.84" font-family="Arial" font-size="10.20">Proposed Bounded Actions</text>
<text text-anchor="middle" x="1733.5" y="-1134.84" font-family="Arial" font-size="10.20">rationale + expected effect</text>
</g>
<!-- Adjudication&#45;&gt;Actions -->
<g id="edge11" class="edge">
<title>Adjudication&#45;&gt;Actions</title>
<path fill="none" stroke="#93c5fd" stroke-width="0.9" d="M1600.06,-1138.65C1618.17,-1139.24 1636.6,-1139.85 1653.72,-1140.41"/>
<polygon fill="#93c5fd" stroke="#93c5fd" stroke-width="0.9" points="1653.7,-1142.93 1660.98,-1140.65 1653.86,-1137.9 1653.7,-1142.93"/>
</g>
<!-- Posture&#45;&gt;PDP -->
<g id="edge15" class="edge">
<title>Posture&#45;&gt;PDP</title>
<path fill="none" stroke="#0f3a75" stroke-width="2.8" d="M1729.93,-1244.3C1722.72,-1288.13 1697.97,-1399.23 1627,-1450 1267.06,-1707.49 695.55,-1647.77 465.9,-1610.06"/>
<polygon fill="#0f3a75" stroke="#0f3a75" stroke-width="2.8" points="466.05,-1607.53 458.54,-1608.84 465.23,-1612.5 466.05,-1607.53"/>
</g>
<!-- Actions&#45;&gt;PDP -->
<g id="edge12" class="edge">
<title>Actions&#45;&gt;PDP</title>
<path fill="none" stroke="#93c5fd" stroke-width="0.9" d="M1690.72,-1161.1C1677.58,-1168.16 1663.72,-1177.19 1653,-1188 1624,-1217.24 1640.57,-1243.79 1608,-1269 1254.98,-1542.21 693.62,-1585.01 466.15,-1590.7"/>
<polygon fill="#93c5fd" stroke="#93c5fd" stroke-width="0.9" points="466,-1588.18 458.86,-1590.87 466.12,-1593.22 466,-1588.18"/>
</g>
<!-- Decision -->
<g id="node15" class="node">
<title>Decision</title>
<path fill="#fff7ed" stroke="#c2410c" stroke-width="1.6" d="M455,-289C455,-289 274,-289 274,-289 268,-289 262,-283 262,-277 262,-277 262,-265 262,-265 262,-259 268,-253 274,-253 274,-253 455,-253 455,-253 461,-253 467,-259 467,-265 467,-265 467,-277 467,-277 467,-283 461,-289 455,-289"/>
<text text-anchor="middle" x="364.5" y="-273.84" font-family="Arial" font-size="10.20">④ Signed Decision Record</text>
<text text-anchor="middle" x="364.5" y="-262.84" font-family="Arial" font-size="10.20">policy hash + ASM hash + evidence refs</text>
</g>
<!-- PDP&#45;&gt;Decision -->
<g id="edge16" class="edge">
<title>PDP&#45;&gt;Decision</title>
<path fill="none" stroke="#0f3a75" stroke-width="2.8" d="M270.24,-1575.93C237.62,-1564.93 206.76,-1545.91 197,-1513 187.65,-1481.47 187.65,-360.53 197,-329 204.87,-302.46 227.89,-287.41 254.45,-279.05"/>
<polygon fill="#0f3a75" stroke="#0f3a75" stroke-width="2.8" points="255.43,-281.39 261.64,-276.97 254.02,-276.55 255.43,-281.39"/>
</g>
<!-- PDP&#45;&gt;Merge -->
<!-- Decision&#45;&gt;Merge -->
<g id="edge17" class="edge">
<title>Decision&#45;&gt;Merge</title>
<path fill="none" stroke="#1e293b" stroke-width="2.6" d="M467.25,-283.56C480.96,-289.36 493.54,-297.54 503,-309 549.68,-365.56 482.73,-581.1 529,-638 581,-701.94 645.04,-635.66 707,-690 728.54,-708.89 710.05,-731.84 733,-749 794.91,-795.3 885.39,-800.35 949.59,-796.62"/>
<polygon fill="#1e293b" stroke="#1e293b" stroke-width="2.6" points="949.87,-799.12 956.9,-796.15 949.55,-794.09 949.87,-799.12"/>
</g>
<!-- Admission -->
<g id="node18" class="node">
<title>Admission</title>
<path fill="#ecfdf5" stroke="#15803d" stroke-width="1.2" d="M1061.5,-729C1061.5,-729 994.5,-729 994.5,-729 988.5,-729 982.5,-723 982.5,-717 982.5,-717 982.5,-705 982.5,-705 982.5,-699 988.5,-693 994.5,-693 994.5,-693 1061.5,-693 1061.5,-693 1067.5,-693 1073.5,-699 1073.5,-705 1073.5,-705 1073.5,-717 1073.5,-717 1073.5,-723 1067.5,-729 1061.5,-729"/>
<text text-anchor="middle" x="1028" y="-708.34" font-family="Arial" font-size="10.20">Admission Gate</text>
</g>
<!-- Decision&#45;&gt;Admission -->
<g id="edge21" class="edge">
<title>Decision&#45;&gt;Admission</title>
<path fill="none" stroke="#94a3b8" stroke-width="0.8" d="M467.05,-283.72C480.79,-289.5 493.43,-297.63 503,-309 540.96,-354.1 493.34,-526.06 529,-573 580.32,-640.57 638.01,-592.61 707,-642 721.62,-652.47 717.23,-664.37 733,-673 809.47,-714.84 913.44,-717.95 975.05,-715.27"/>
<polygon fill="#94a3b8" stroke="#94a3b8" stroke-width="0.8" points="975.28,-717.78 982.35,-714.91 975.03,-712.74 975.28,-717.78"/>
</g>
<!-- Segment -->
<g id="node19" class="node">
<title>Segment</title>
<path fill="#ecfdf5" stroke="#15803d" stroke-width="1.2" d="M1070,-653C1070,-653 986,-653 986,-653 980,-653 974,-647 974,-641 974,-641 974,-629 974,-629 974,-623 980,-617 986,-617 986,-617 1070,-617 1070,-617 1076,-617 1082,-623 1082,-629 1082,-629 1082,-641 1082,-641 1082,-647 1076,-653 1070,-653"/>
<text text-anchor="middle" x="1028" y="-632.34" font-family="Arial" font-size="10.20">Segmentation Gate</text>
</g>
<!-- Decision&#45;&gt;Segment -->
<g id="edge22" class="edge">
<title>Decision&#45;&gt;Segment</title>
<path fill="none" stroke="#94a3b8" stroke-width="0.8" d="M467.34,-284.36C480.87,-290.07 493.36,-298.01 503,-309 558.04,-371.75 480.3,-427.21 529,-495 588.15,-577.32 636.04,-567.42 733,-597 811.36,-620.91 905.95,-629.77 966.29,-633.06"/>
<polygon fill="#94a3b8" stroke="#94a3b8" stroke-width="0.8" points="966.52,-635.6 973.84,-633.46 966.78,-630.57 966.52,-635.6"/>
</g>
<!-- Data -->
<g id="node20" class="node">
<title>Data</title>
<path fill="#ecfdf5" stroke="#15803d" stroke-width="1.2" d="M1067.5,-577C1067.5,-577 988.5,-577 988.5,-577 982.5,-577 976.5,-571 976.5,-565 976.5,-565 976.5,-553 976.5,-553 976.5,-547 982.5,-541 988.5,-541 988.5,-541 1067.5,-541 1067.5,-541 1073.5,-541 1079.5,-547 1079.5,-553 1079.5,-553 1079.5,-565 1079.5,-565 1079.5,-571 1073.5,-577 1067.5,-577"/>
<text text-anchor="middle" x="1028" y="-556.34" font-family="Arial" font-size="10.20">Data&#45;Access Gate</text>
</g>
<!-- Decision&#45;&gt;Data -->
<g id="edge23" class="edge">
<title>Decision&#45;&gt;Data</title>
<path fill="none" stroke="#94a3b8" stroke-width="0.8" d="M467.1,-285.5C480.49,-291.08 493.01,-298.67 503,-309 537.32,-344.49 498.43,-378.23 529,-417 592.02,-496.91 635.78,-490.93 733,-521 812.45,-545.58 908.74,-554.27 968.95,-557.33"/>
<polygon fill="#94a3b8" stroke="#94a3b8" stroke-width="0.8" points="969.16,-559.87 976.48,-557.7 969.41,-554.83 969.16,-559.87"/>
</g>
<!-- Response -->
<g id="node21" class="node">
<title>Response</title>
<path fill="#ecfdf5" stroke="#15803d" stroke-width="1.2" d="M1071,-501C1071,-501 985,-501 985,-501 979,-501 973,-495 973,-489 973,-489 973,-477 973,-477 973,-471 979,-465 985,-465 985,-465 1071,-465 1071,-465 1077,-465 1083,-471 1083,-477 1083,-477 1083,-489 1083,-489 1083,-495 1077,-501 1071,-501"/>
<text text-anchor="middle" x="1028" y="-485.84" font-family="Arial" font-size="10.20">Bounded Response</text>
<text text-anchor="middle" x="1028" y="-474.84" font-family="Arial" font-size="10.20">Automation Gate</text>
</g>
<!-- Decision&#45;&gt;Response -->
<g id="edge24" class="edge">
<title>Decision&#45;&gt;Response</title>
<path fill="none" stroke="#94a3b8" stroke-width="0.8" d="M447.34,-289.07C466.03,-294.44 485.53,-301.05 503,-309 614.54,-359.72 617.06,-421.37 733,-461 810.03,-487.33 904.81,-489.43 965.57,-487.25"/>
<polygon fill="#94a3b8" stroke="#94a3b8" stroke-width="0.8" points="965.71,-489.77 972.8,-486.97 965.51,-484.73 965.71,-489.77"/>
</g>
<!-- Decision&#45;&gt;Ledger -->
<g id="edge37" class="edge">
<title>Decision&#45;&gt;Ledger</title>
<path fill="none" stroke="#9ca3af" stroke-dasharray="1,5" d="M467.26,-256.17C480.55,-250.63 493,-243.13 503,-233 534.96,-200.63 492.98,-161.78 529,-134 591.64,-85.68 630.88,-112.45 707,-134 828.79,-168.48 949.78,-263.86 1001.23,-308.01"/>
<polygon fill="#9ca3af" stroke="#9ca3af" points="999.77,-310.08 1006.86,-312.89 1003.06,-306.27 999.77,-310.08"/>
</g>
<!-- SwarmCallout -->
<g id="node16" class="node">
<title>SwarmCallout</title>
<polygon fill="#fff1f2" stroke="#be123c" stroke-width="1.2" points="433,-917 290,-917 290,-881 439,-881 439,-911 433,-917"/>
<polyline fill="none" stroke="#be123c" stroke-width="1.2" points="433,-917 433,-911 "/>
<polyline fill="none" stroke="#be123c" stroke-width="1.2" points="439,-911 433,-911 "/>
<text text-anchor="middle" x="364.5" y="-901.8" font-family="Arial" font-size="9.00">Swarm informs;</text>
<text text-anchor="middle" x="364.5" y="-891.8" font-family="Arial" font-size="9.00">swarm does NOT grant authority.</text>
</g>
<!-- SwarmCallout&#45;&gt;Adjudication -->
<g id="edge33" class="edge">
<title>SwarmCallout&#45;&gt;Adjudication</title>
<path fill="none" stroke="#be123c" stroke-dasharray="5,2" d="M439.1,-891.01C635.94,-870.95 1169.93,-825.54 1323,-905 1408.05,-949.15 1458.81,-1059.89 1478.08,-1109.85"/>
<polygon fill="#be123c" stroke="#be123c" points="1475.79,-1110.92 1480.69,-1116.77 1480.5,-1109.14 1475.79,-1110.92"/>
</g>
<!-- ActionRec -->
<g id="node22" class="node">
<title>ActionRec</title>
<path fill="#ecfdf5" stroke="#15803d" stroke-width="1.2" d="M417,-365C417,-365 312,-365 312,-365 306,-365 300,-359 300,-353 300,-353 300,-341 300,-341 300,-335 306,-329 312,-329 312,-329 417,-329 417,-329 423,-329 429,-335 429,-341 429,-341 429,-353 429,-353 429,-359 423,-365 417,-365"/>
<text text-anchor="middle" x="364.5" y="-349.84" font-family="Arial" font-size="10.20">Action Record</text>
<text text-anchor="middle" x="364.5" y="-338.84" font-family="Arial" font-size="10.20">principal | scope | effect</text>
</g>
<!-- Merge&#45;&gt;ActionRec -->
<g id="edge18" class="edge">
<title>Merge&#45;&gt;ActionRec</title>
<path fill="none" stroke="#166534" stroke-width="2.6" d="M956.63,-794.24C851.28,-801.1 651.85,-798.1 529,-696 423.43,-608.26 382.06,-437 369.79,-372.44"/>
<polygon fill="#166534" stroke="#166534" stroke-width="2.6" points="372.22,-371.74 368.44,-365.11 367.27,-372.65 372.22,-371.74"/>
</g>
<!-- Admission&#45;&gt;ActionRec -->
<g id="edge25" class="edge">
<title>Admission&#45;&gt;ActionRec</title>
<path fill="none" stroke="#86efac" stroke-width="0.8" d="M982.46,-713.19C922.88,-714.39 815.21,-710.41 733,-673 573.15,-600.25 432.67,-433.6 383.83,-371.19"/>
<polygon fill="#86efac" stroke="#86efac" stroke-width="0.8" points="385.54,-369.27 379.13,-365.13 381.56,-372.37 385.54,-369.27"/>
</g>
<!-- Segment&#45;&gt;ActionRec -->
<g id="edge26" class="edge">
<title>Segment&#45;&gt;ActionRec</title>
<path fill="none" stroke="#86efac" stroke-width="0.8" d="M973.99,-645.89C907.42,-656.13 794.52,-661.54 733,-597 683.47,-545.04 759.77,-323.68 707,-275 648.85,-221.36 599.92,-239.95 529,-275 511.95,-283.43 518.77,-298.36 503,-309 483.27,-322.32 458.98,-330.99 436.33,-336.63"/>
<polygon fill="#86efac" stroke="#86efac" stroke-width="0.8" points="435.47,-334.24 429.04,-338.36 436.63,-339.15 435.47,-334.24"/>
</g>
<!-- Data&#45;&gt;ActionRec -->
<g id="edge27" class="edge">
<title>Data&#45;&gt;ActionRec</title>
<path fill="none" stroke="#86efac" stroke-width="0.8" d="M976.35,-569.46C910.2,-579.84 795.49,-586.04 733,-521 687.71,-473.86 755.22,-272.13 707,-228 648.64,-174.59 592.92,-181.39 529,-228 498.45,-250.28 530.28,-282.82 503,-309 485.11,-326.17 460.17,-335.73 436.44,-340.99"/>
<polygon fill="#86efac" stroke="#86efac" stroke-width="0.8" points="435.67,-338.58 429.13,-342.49 436.69,-343.52 435.67,-338.58"/>
</g>
<!-- Response&#45;&gt;ActionRec -->
<g id="edge28" class="edge">
<title>Response&#45;&gt;ActionRec</title>
<path fill="none" stroke="#86efac" stroke-width="0.8" d="M972.81,-497.44C906.61,-511.45 795.72,-522.6 733,-461 688.42,-417.21 753.18,-223.09 707,-181 648.53,-127.71 590.26,-130.94 529,-181 484.05,-217.74 542.6,-266.56 503,-309 485.78,-327.46 460.47,-337.24 436.24,-342.33"/>
<polygon fill="#86efac" stroke="#86efac" stroke-width="0.8" points="435.7,-339.87 429.11,-343.71 436.66,-344.82 435.7,-339.87"/>
</g>
<!-- Verify -->
<g id="node23" class="node">
<title>Verify</title>
<path fill="#ecfdf5" stroke="#15803d" stroke-width="1.6" d="M450,-213C450,-213 279,-213 279,-213 273,-213 267,-207 267,-201 267,-201 267,-189 267,-189 267,-183 273,-177 279,-177 279,-177 450,-177 450,-177 456,-177 462,-183 462,-189 462,-189 462,-201 462,-201 462,-207 456,-213 450,-213"/>
<text text-anchor="middle" x="364.5" y="-197.84" font-family="Arial" font-size="10.20">⑥ Independent Verification</text>
<text text-anchor="middle" x="364.5" y="-186.84" font-family="Arial" font-size="10.20">confirm effect via independent signals</text>
</g>
<!-- ActionRec&#45;&gt;Verify -->
<g id="edge19" class="edge">
<title>ActionRec&#45;&gt;Verify</title>
<path fill="none" stroke="#166534" stroke-width="2.8" d="M299.85,-341.99C270.29,-337.1 236.12,-327.56 210,-309 189.17,-294.2 189.74,-277.5 197,-253 205.35,-224.85 230.74,-209.62 259.31,-201.6"/>
<polygon fill="#166534" stroke="#166534" stroke-width="2.8" points="260.29,-203.95 266.64,-199.71 259.03,-199.07 260.29,-203.95"/>
</g>
<!-- ActionRec&#45;&gt;Ledger -->
<g id="edge38" class="edge">
<title>ActionRec&#45;&gt;Ledger</title>
<path fill="none" stroke="#9ca3af" stroke-dasharray="1,5" d="M429.23,-345.46C498.46,-343.78 614.11,-340.99 725.34,-338.3"/>
<polygon fill="#9ca3af" stroke="#9ca3af" points="725.52,-340.81 732.66,-338.12 725.4,-335.77 725.52,-340.81"/>
</g>
<!-- Verify&#45;&gt;Enrich -->
<g id="edge29" class="edge">
<title>Verify&#45;&gt;Enrich</title>
<path fill="none" stroke="#15803d" stroke-width="1.9" d="M266.89,-200.52C245.38,-206.32 224.66,-216.28 210,-233 76.49,-385.26 149.85,-483.8 161,-686 171.91,-883.79 79.4,-980.06 210,-1129 225.35,-1146.5 247.34,-1156.6 269.93,-1162.27"/>
<polygon fill="#15803d" stroke="#15803d" stroke-width="1.9" points="269.37,-1164.73 276.95,-1163.89 270.51,-1159.82 269.37,-1164.73"/>
<text text-anchor="middle" x="162.5" y="-678.96" font-family="Arial" font-size="8.80" fill="#15803d">feedback / closure</text>
</g>
<!-- Verify&#45;&gt;Ledger -->
<g id="edge20" class="edge">
<title>Verify&#45;&gt;Ledger</title>
<path fill="none" stroke="#166534" stroke-width="2.8" d="M386.98,-176.82C416.64,-153.03 472.86,-112.53 529,-97 605.25,-75.9 631.8,-72.44 707,-97 836.77,-139.39 957.56,-256.57 1005.37,-307.2"/>
<polygon fill="#166534" stroke="#166534" stroke-width="2.8" points="1003.81,-309.21 1010.57,-312.75 1007.49,-305.77 1003.81,-309.21"/>
</g>
<!-- EPCallout -->
<g id="node24" class="node">
<title>EPCallout</title>
<polygon fill="#ecfdf5" stroke="#15803d" stroke-width="1.2" points="1104,-425 946,-425 946,-389 1110,-389 1110,-419 1104,-425"/>
<polyline fill="none" stroke="#15803d" stroke-width="1.2" points="1104,-425 1104,-419 "/>
<polyline fill="none" stroke="#15803d" stroke-width="1.2" points="1110,-419 1104,-419 "/>
<text text-anchor="middle" x="1028" y="-409.8" font-family="Arial" font-size="9.00">Agents propose; enforcement points</text>
<text text-anchor="middle" x="1028" y="-399.8" font-family="Arial" font-size="9.00">execute side effects.</text>
</g>
<!-- EPCallout&#45;&gt;Merge -->
<g id="edge34" class="edge">
<title>EPCallout&#45;&gt;Merge</title>
<path fill="none" stroke="#15803d" stroke-dasharray="5,2" d="M945.66,-390.9C850.33,-377.62 696.37,-373.82 618,-467 543.05,-556.11 543.05,-639.89 618,-729 697.37,-823.37 854.45,-817.32 949.47,-803.05"/>
<polygon fill="#15803d" stroke="#15803d" points="950.04,-805.51 956.77,-801.92 949.27,-800.53 950.04,-805.51"/>
</g>
<!-- ReplayNote -->
<g id="node26" class="node">
<title>ReplayNote</title>
<polygon fill="#f8fafc" stroke="#64748b" stroke-width="1.2" points="701,-36 529,-36 529,0 707,0 707,-30 701,-36"/>
<polyline fill="none" stroke="#64748b" stroke-width="1.2" points="701,-36 701,-30 "/>
<polyline fill="none" stroke="#64748b" stroke-width="1.2" points="707,-30 701,-30 "/>
<text text-anchor="middle" x="618" y="-15.62" font-family="Arial" font-size="8.60">replay: what was known &#45;&gt; decided &#45;&gt; done</text>
</g>
<!-- Ledger&#45;&gt;ReplayNote -->
<g id="edge39" class="edge">
<title>Ledger&#45;&gt;ReplayNote</title>
<path fill="none" stroke="#6b7280" stroke-width="1.2" stroke-dasharray="1,5" d="M1012.59,-312.67C971.09,-261.15 845.37,-114.06 707,-40 706.51,-39.74 706.01,-39.47 705.51,-39.22"/>
<polygon fill="#6b7280" stroke="#6b7280" stroke-width="1.2" points="706.42,-36.86 698.83,-36.02 704.24,-41.4 706.42,-36.86"/>
</g>
</g>
</svg>
