<?xml version="1.0" encoding="UTF-8" standalone="no"?>
<!DOCTYPE svg PUBLIC "-//W3C//DTD SVG 1.1//EN"
 "http://www.w3.org/Graphics/SVG/1.1/DTD/svg11.dtd">
<!-- Generated by graphviz version 2.43.0 (0)
 -->
<!-- Title: CAFEnrichGateway Pages: 1 -->
<svg width="1994pt" height="485pt"
 viewBox="0.00 0.00 1993.80 484.80" xmlns="http://www.w3.org/2000/svg" xmlns:xlink="http://www.w3.org/1999/xlink">
<g id="graph0" class="graph" transform="scale(1 1) rotate(0) translate(14.4 470.4)">
<title>CAFEnrichGateway</title>
<polygon fill="white" stroke="transparent" points="-14.4,14.4 -14.4,-470.4 1979.4,-470.4 1979.4,14.4 -14.4,14.4"/>
<text text-anchor="middle" x="982.5" y="-440.8" font-family="Times,serif" font-size="14.00">ENRICH Ingestion Gateway: Threat Controls and Anchoring</text>
<g id="clust1" class="cluster">
<title>cluster_producers</title>
<path fill="white" stroke="#94a3b8" stroke-dasharray="5,2" d="M20,-192C20,-192 140,-192 140,-192 146,-192 152,-198 152,-204 152,-204 152,-413 152,-413 152,-419 146,-425 140,-425 140,-425 20,-425 20,-425 14,-425 8,-419 8,-413 8,-413 8,-204 8,-204 8,-198 14,-192 20,-192"/>
<text text-anchor="middle" x="80" y="-409.8" font-family="Times,serif" font-size="14.00">Producers</text>
</g>
<!-- Pipe -->
<g id="node1" class="node">
<title>Pipe</title>
<path fill="#eef6ff" stroke="#204060" d="M118,-394C118,-394 42,-394 42,-394 36,-394 30,-388 30,-382 30,-382 30,-370 30,-370 30,-364 36,-358 42,-358 42,-358 118,-358 118,-358 124,-358 130,-364 130,-370 130,-370 130,-382 130,-382 130,-388 124,-394 118,-394"/>
<text text-anchor="middle" x="80" y="-373.52" font-family="Arial" font-size="10.60">Pipeline producer</text>
</g>
<!-- Gateway -->
<g id="node4" class="node">
<title>Gateway</title>
<path fill="#fff7ed" stroke="#9a3412" d="M333,-315C333,-315 209,-315 209,-315 203,-315 197,-309 197,-303 197,-303 197,-291 197,-291 197,-285 203,-279 209,-279 209,-279 333,-279 333,-279 339,-279 345,-285 345,-291 345,-291 345,-303 345,-303 345,-309 339,-315 333,-315"/>
<text text-anchor="middle" x="271" y="-294.52" font-family="Arial" font-size="10.60">ENRICH Ingestion Gateway</text>
</g>
<!-- Pipe&#45;&gt;Gateway -->
<g id="edge1" class="edge">
<title>Pipe&#45;&gt;Gateway</title>
<path fill="none" stroke="#204060" stroke-width="1.25" d="M124.36,-357.88C152.81,-345.98 190.12,-330.39 219.85,-317.96"/>
<polygon fill="#204060" stroke="#204060" stroke-width="1.25" points="220.93,-320.35 226.84,-315.04 218.91,-315.51 220.93,-320.35"/>
</g>
<!-- Sensor -->
<g id="node2" class="node">
<title>Sensor</title>
<path fill="#eef6ff" stroke="#204060" d="M132,-315C132,-315 28,-315 28,-315 22,-315 16,-309 16,-303 16,-303 16,-291 16,-291 16,-285 22,-279 28,-279 28,-279 132,-279 132,-279 138,-279 144,-285 144,-291 144,-291 144,-303 144,-303 144,-309 138,-315 132,-315"/>
<text text-anchor="middle" x="80" y="-294.52" font-family="Arial" font-size="10.60">Runtime/identity sensor</text>
</g>
<!-- Sensor&#45;&gt;Gateway -->
<g id="edge2" class="edge">
<title>Sensor&#45;&gt;Gateway</title>
<path fill="none" stroke="#204060" stroke-width="1.25" d="M144.2,-297C158.54,-297 173.98,-297 188.95,-297"/>
<polygon fill="#204060" stroke="#204060" stroke-width="1.25" points="189.23,-299.63 196.73,-297 189.23,-294.38 189.23,-299.63"/>
</g>
<!-- Agent -->
<g id="node3" class="node">
<title>Agent</title>
<path fill="#eef6ff" stroke="#204060" d="M128.5,-236C128.5,-236 31.5,-236 31.5,-236 25.5,-236 19.5,-230 19.5,-224 19.5,-224 19.5,-212 19.5,-212 19.5,-206 25.5,-200 31.5,-200 31.5,-200 128.5,-200 128.5,-200 134.5,-200 140.5,-206 140.5,-212 140.5,-212 140.5,-224 140.5,-224 140.5,-230 134.5,-236 128.5,-236"/>
<text text-anchor="middle" x="80" y="-221.52" font-family="Arial" font-size="10.60">Agentic producer</text>
<text text-anchor="middle" x="80" y="-209.52" font-family="Arial" font-size="10.60">(model + tool outputs)</text>
</g>
<!-- Agent&#45;&gt;Gateway -->
<g id="edge3" class="edge">
<title>Agent&#45;&gt;Gateway</title>
<path fill="none" stroke="#204060" stroke-width="1.25" d="M124.36,-236.12C152.81,-248.02 190.12,-263.61 219.85,-276.04"/>
<polygon fill="#204060" stroke="#204060" stroke-width="1.25" points="218.91,-278.49 226.84,-278.96 220.93,-273.65 218.91,-278.49"/>
</g>
<!-- VerifySig -->
<g id="node5" class="node">
<title>VerifySig</title>
<path fill="#fff7ed" stroke="#9a3412" d="M553,-265C553,-265 443,-265 443,-265 437,-265 431,-259 431,-253 431,-253 431,-241 431,-241 431,-235 437,-229 443,-229 443,-229 553,-229 553,-229 559,-229 565,-235 565,-241 565,-241 565,-253 565,-253 565,-259 559,-265 553,-265"/>
<text text-anchor="middle" x="498" y="-244.52" font-family="Arial" font-size="10.60">Signature verify / sealing</text>
</g>
<!-- Gateway&#45;&gt;VerifySig -->
<g id="edge4" class="edge">
<title>Gateway&#45;&gt;VerifySig</title>
<path fill="none" stroke="#204060" stroke-width="1.25" d="M345.05,-280.77C370.16,-275.19 398.27,-268.94 423.42,-263.35"/>
<polygon fill="#204060" stroke="#204060" stroke-width="1.25" points="424.03,-265.91 430.78,-261.72 422.89,-260.78 424.03,-265.91"/>
</g>
<!-- Schema -->
<g id="node6" class="node">
<title>Schema</title>
<path fill="#fff7ed" stroke="#9a3412" d="M787,-215C787,-215 663,-215 663,-215 657,-215 651,-209 651,-203 651,-203 651,-191 651,-191 651,-185 657,-179 663,-179 663,-179 787,-179 787,-179 793,-179 799,-185 799,-191 799,-191 799,-203 799,-203 799,-209 793,-215 787,-215"/>
<text text-anchor="middle" x="725" y="-194.52" font-family="Arial" font-size="10.60">Schema compatibility check</text>
</g>
<!-- VerifySig&#45;&gt;Schema -->
<g id="edge5" class="edge">
<title>VerifySig&#45;&gt;Schema</title>
<path fill="none" stroke="#204060" stroke-width="1.25" d="M565.29,-232.27C589.71,-226.84 617.65,-220.63 643.21,-214.95"/>
<polygon fill="#204060" stroke="#204060" stroke-width="1.25" points="643.95,-217.48 650.71,-213.29 642.82,-212.35 643.95,-217.48"/>
</g>
<!-- Label -->
<g id="node7" class="node">
<title>Label</title>
<path fill="#fff7ed" stroke="#9a3412" d="M1031,-165C1031,-165 897,-165 897,-165 891,-165 885,-159 885,-153 885,-153 885,-141 885,-141 885,-135 891,-129 897,-129 897,-129 1031,-129 1031,-129 1037,-129 1043,-135 1043,-141 1043,-141 1043,-153 1043,-153 1043,-159 1037,-165 1031,-165"/>
<text text-anchor="middle" x="964" y="-144.52" font-family="Arial" font-size="10.60">Labeling + handling metadata</text>
</g>
<!-- Schema&#45;&gt;Label -->
<g id="edge6" class="edge">
<title>Schema&#45;&gt;Label</title>
<path fill="none" stroke="#204060" stroke-width="1.25" d="M799.04,-181.59C823.8,-176.37 851.68,-170.49 877.33,-165.07"/>
<polygon fill="#204060" stroke="#204060" stroke-width="1.25" points="878.06,-167.6 884.85,-163.49 876.97,-162.47 878.06,-167.6"/>
</g>
<!-- Replay -->
<g id="node8" class="node">
<title>Replay</title>
<path fill="#fff7ed" stroke="#9a3412" d="M1279,-115C1279,-115 1141,-115 1141,-115 1135,-115 1129,-109 1129,-103 1129,-103 1129,-91 1129,-91 1129,-85 1135,-79 1141,-79 1141,-79 1279,-79 1279,-79 1285,-79 1291,-85 1291,-91 1291,-91 1291,-103 1291,-103 1291,-109 1285,-115 1279,-115"/>
<text text-anchor="middle" x="1210" y="-94.52" font-family="Arial" font-size="10.60">Anti&#45;replay + freshness checks</text>
</g>
<!-- Label&#45;&gt;Replay -->
<g id="edge7" class="edge">
<title>Label&#45;&gt;Replay</title>
<path fill="none" stroke="#204060" stroke-width="1.25" d="M1043.21,-130.97C1068.08,-125.88 1095.74,-120.21 1121.24,-114.98"/>
<polygon fill="#204060" stroke="#204060" stroke-width="1.25" points="1121.9,-117.53 1128.72,-113.45 1120.84,-112.39 1121.9,-117.53"/>
</g>
<!-- Quarantine -->
<g id="node9" class="node">
<title>Quarantine</title>
<path fill="#fff7ed" stroke="#9a3412" d="M1496,-54C1496,-54 1398,-54 1398,-54 1392,-54 1386,-48 1386,-42 1386,-42 1386,-30 1386,-30 1386,-24 1392,-18 1398,-18 1398,-18 1496,-18 1496,-18 1502,-18 1508,-24 1508,-30 1508,-30 1508,-42 1508,-42 1508,-48 1502,-54 1496,-54"/>
<text text-anchor="middle" x="1447" y="-33.52" font-family="Arial" font-size="10.60">Throttling / quarantine</text>
</g>
<!-- Replay&#45;&gt;Quarantine -->
<g id="edge8" class="edge">
<title>Replay&#45;&gt;Quarantine</title>
<path fill="none" stroke="#204060" stroke-width="1.25" d="M1280.55,-78.95C1311.5,-70.91 1347.81,-61.49 1378.51,-53.52"/>
<polygon fill="#204060" stroke="#204060" stroke-width="1.25" points="1379.18,-56.06 1385.78,-51.63 1377.86,-50.97 1379.18,-56.06"/>
</g>
<!-- Envelope -->
<g id="node10" class="node">
<title>Envelope</title>
<path fill="#eef6ff" stroke="#1d4ed8" d="M1700,-54C1700,-54 1573,-54 1573,-54 1567,-54 1561,-48 1561,-42 1561,-42 1561,-30 1561,-30 1561,-24 1567,-18 1573,-18 1573,-18 1700,-18 1700,-18 1706,-18 1712,-24 1712,-30 1712,-30 1712,-42 1712,-42 1712,-48 1706,-54 1700,-54"/>
<text text-anchor="middle" x="1636.5" y="-33.52" font-family="Arial" font-size="10.60">Admitted evidence envelope</text>
</g>
<!-- Quarantine&#45;&gt;Envelope -->
<g id="edge9" class="edge">
<title>Quarantine&#45;&gt;Envelope</title>
<path fill="none" stroke="#204060" stroke-width="1.25" d="M1508.1,-36C1522.42,-36 1537.95,-36 1553.08,-36"/>
<polygon fill="#204060" stroke="#204060" stroke-width="1.25" points="1553.45,-38.63 1560.95,-36 1553.45,-33.38 1553.45,-38.63"/>
</g>
<!-- Ledger -->
<g id="node11" class="node">
<title>Ledger</title>
<path fill="#ecfdf5" stroke="#166534" d="M1953,-54C1953,-54 1866,-54 1866,-54 1860,-54 1854,-48 1854,-42 1854,-42 1854,-30 1854,-30 1854,-24 1860,-18 1866,-18 1866,-18 1953,-18 1953,-18 1959,-18 1965,-24 1965,-30 1965,-30 1965,-42 1965,-42 1965,-48 1959,-54 1953,-54"/>
<text text-anchor="middle" x="1909.5" y="-33.52" font-family="Arial" font-size="10.60">Proof ledger anchor</text>
</g>
<!-- Envelope&#45;&gt;Ledger -->
<g id="edge10" class="edge">
<title>Envelope&#45;&gt;Ledger</title>
<path fill="none" stroke="#166534" stroke-width="2" d="M1712.27,-36C1754.28,-36 1806.1,-36 1845.94,-36"/>
<polygon fill="#166534" stroke="#166534" stroke-width="2" points="1846.24,-38.63 1853.74,-36 1846.24,-33.38 1846.24,-38.63"/>
<text text-anchor="middle" x="1783" y="-38.8" font-family="Times,serif" font-size="9.00" fill="#166534">verification/closure</text>
</g>
<!-- T1 -->
<g id="node12" class="node">
<title>T1</title>
<polygon fill="#fef2f2" stroke="#991b1b" points="997,-86 925,-86 925,-50 1003,-50 1003,-80 997,-86"/>
<polyline fill="none" stroke="#991b1b" points="997,-86 997,-80 "/>
<polyline fill="none" stroke="#991b1b" points="1003,-80 997,-80 "/>
<text text-anchor="middle" x="964" y="-65.48" font-family="Arial" font-size="9.40">Replay attempt</text>
</g>
<!-- T1&#45;&gt;Replay -->
<g id="edge11" class="edge">
<title>T1&#45;&gt;Replay</title>
<path fill="none" stroke="#991b1b" stroke-width="1.25" stroke-dasharray="1,5" d="M1003.08,-72.35C1030.8,-75.53 1069.23,-79.97 1103,-84 1108.89,-84.7 1114.96,-85.43 1121.08,-86.17"/>
<polygon fill="#991b1b" stroke="#991b1b" stroke-width="1.25" points="1121.08,-88.82 1128.85,-87.11 1121.72,-83.6 1121.08,-88.82"/>
<text text-anchor="middle" x="1086" y="-86.2" font-family="Times,serif" font-size="8.50" fill="#991b1b">blocked</text>
</g>
<!-- T2 -->
<g id="node13" class="node">
<title>T2</title>
<polygon fill="#fef2f2" stroke="#991b1b" points="538,-186 452,-186 452,-150 544,-150 544,-180 538,-186"/>
<polyline fill="none" stroke="#991b1b" points="538,-186 538,-180 "/>
<polyline fill="none" stroke="#991b1b" points="544,-180 538,-180 "/>
<text text-anchor="middle" x="498" y="-165.48" font-family="Arial" font-size="9.40">Schema confusion</text>
</g>
<!-- T2&#45;&gt;Schema -->
<g id="edge12" class="edge">
<title>T2&#45;&gt;Schema</title>
<path fill="none" stroke="#991b1b" stroke-width="1.25" stroke-dasharray="1,5" d="M544.2,-173.69C568.21,-176.73 598.21,-180.54 625,-184 630.86,-184.76 636.92,-185.54 643.02,-186.34"/>
<polygon fill="#991b1b" stroke="#991b1b" stroke-width="1.25" points="642.97,-188.98 650.75,-187.35 643.65,-183.77 642.97,-188.98"/>
<text text-anchor="middle" x="608" y="-186.2" font-family="Times,serif" font-size="8.50" fill="#991b1b">blocked</text>
</g>
<!-- T3 -->
<g id="node14" class="node">
<title>T3</title>
<polygon fill="#fef2f2" stroke="#991b1b" points="772.5,-136 671.5,-136 671.5,-100 778.5,-100 778.5,-130 772.5,-136"/>
<polyline fill="none" stroke="#991b1b" points="772.5,-136 772.5,-130 "/>
<polyline fill="none" stroke="#991b1b" points="778.5,-130 772.5,-130 "/>
<text text-anchor="middle" x="725" y="-115.48" font-family="Arial" font-size="9.40">Mislabeled movement</text>
</g>
<!-- T3&#45;&gt;Label -->
<g id="edge13" class="edge">
<title>T3&#45;&gt;Label</title>
<path fill="none" stroke="#991b1b" stroke-width="1.25" stroke-dasharray="1,5" d="M778.76,-124.29C803.18,-127.22 832.57,-130.76 859,-134 864.91,-134.72 871,-135.48 877.13,-136.24"/>
<polygon fill="#991b1b" stroke="#991b1b" stroke-width="1.25" points="877.15,-138.88 884.92,-137.2 877.8,-133.67 877.15,-138.88"/>
<text text-anchor="middle" x="842" y="-136.2" font-family="Times,serif" font-size="8.50" fill="#991b1b">blocked</text>
</g>
<!-- T4 -->
<g id="node15" class="node">
<title>T4</title>
<polygon fill="#fef2f2" stroke="#991b1b" points="311,-236 225,-236 225,-200 317,-200 317,-230 311,-236"/>
<polyline fill="none" stroke="#991b1b" points="311,-236 311,-230 "/>
<polyline fill="none" stroke="#991b1b" points="317,-230 311,-230 "/>
<text text-anchor="middle" x="271" y="-215.48" font-family="Arial" font-size="9.40">Producer spoofing</text>
</g>
<!-- T4&#45;&gt;VerifySig -->
<g id="edge14" class="edge">
<title>T4&#45;&gt;VerifySig</title>
<path fill="none" stroke="#991b1b" stroke-width="1.25" stroke-dasharray="1,5" d="M317.27,-223.21C343.01,-226.23 375.83,-230.18 405,-234 410.85,-234.76 416.9,-235.58 422.98,-236.41"/>
<polygon fill="#991b1b" stroke="#991b1b" stroke-width="1.25" points="422.9,-239.04 430.69,-237.46 423.62,-233.84 422.9,-239.04"/>
<text text-anchor="middle" x="388" y="-236.2" font-family="Times,serif" font-size="8.50" fill="#991b1b">blocked</text>
</g>
<!-- T5 -->
<g id="node16" class="node">
<title>T5</title>
<polygon fill="#fef2f2" stroke="#991b1b" points="1275.5,-36 1138.5,-36 1138.5,0 1281.5,0 1281.5,-30 1275.5,-36"/>
<polyline fill="none" stroke="#991b1b" points="1275.5,-36 1275.5,-30 "/>
<polyline fill="none" stroke="#991b1b" points="1281.5,-30 1275.5,-30 "/>
<text text-anchor="middle" x="1210" y="-15.48" font-family="Arial" font-size="9.40">Context/tool&#45;output substitution</text>
</g>
<!-- T5&#45;&gt;Quarantine -->
<g id="edge15" class="edge">
<title>T5&#45;&gt;Quarantine</title>
<path fill="none" stroke="#991b1b" stroke-width="1.25" stroke-dasharray="1,5" d="M1281.51,-23.4C1312.17,-25.75 1347.94,-28.49 1378.28,-30.81"/>
<polygon fill="#991b1b" stroke="#991b1b" stroke-width="1.25" points="1378.19,-33.44 1385.87,-31.39 1378.59,-28.2 1378.19,-33.44"/>
<text text-anchor="middle" x="1338.5" y="-32.2" font-family="Times,serif" font-size="8.50" fill="#991b1b">contained</text>
</g>
</g>
</svg>
